<svg width="71" height="14" viewBox="0 0 71 14" fill="none" xmlns="http://www.w3.org/2000/svg">
<path d="M22.114 4.74629L21.3173 5.54947C20.8115 5.00558 20.2267 4.73363 19.5533 4.73363C18.9685 4.73363 18.4784 4.93285 18.0833 5.32812C17.6881 5.72339 17.4921 6.20404 17.4921 6.77007C17.4921 7.3361 17.6976 7.85154 18.1054 8.25946C18.5164 8.66738 19.0222 8.86976 19.6229 8.86976C20.0149 8.86976 20.3436 8.78439 20.6124 8.61679C20.8811 8.4492 21.096 8.18674 21.2604 7.82941H19.5407V6.74477H22.5313L22.5408 7.0009C22.5408 7.53215 22.4048 8.03494 22.1361 8.50927C21.8674 8.98359 21.5165 9.34725 21.0897 9.59706C20.6598 9.84687 20.1603 9.97336 19.5818 9.97336C18.9653 9.97336 18.4152 9.83739 17.9315 9.56228C17.4479 9.28717 17.0653 8.89822 16.784 8.39227C16.5026 7.88632 16.3604 7.33927 16.3604 6.75426C16.3604 5.95107 16.6196 5.25223 17.1412 4.6609C17.7577 3.95574 18.5606 3.60156 19.5501 3.60156C20.0686 3.60156 20.5491 3.69961 21.0012 3.89566C21.3805 4.0601 21.7536 4.34469 22.1171 4.74629H22.114Z" fill="white"/>
<path d="M26.491 5.34042H27.5943V9.82755H26.491V9.35322C26.276 9.56192 26.0611 9.71371 25.8429 9.80541C25.628 9.89711 25.3909 9.94455 25.138 9.94455C24.5689 9.94455 24.0789 9.72003 23.6648 9.271C23.2506 8.82197 23.042 8.26227 23.042 7.59505C23.042 6.92783 23.2412 6.33334 23.6426 5.89063C24.0441 5.44793 24.531 5.22656 25.1032 5.22656C25.3656 5.22656 25.6153 5.27717 25.8461 5.37836C26.0769 5.47955 26.2918 5.63132 26.4878 5.83686V5.34356L26.491 5.34042ZM25.3308 6.26377C24.9894 6.26377 24.708 6.38709 24.4804 6.63374C24.2559 6.88039 24.1421 7.1966 24.1421 7.57922C24.1421 7.96185 24.2559 8.2844 24.4867 8.53737C24.7175 8.79035 24.9989 8.91367 25.334 8.91367C25.6691 8.91367 25.9662 8.79035 26.197 8.5437C26.4246 8.29705 26.5384 7.97449 26.5384 7.57606C26.5384 7.17762 26.4246 6.87089 26.197 6.6274C25.9694 6.38708 25.6817 6.26377 25.3308 6.26377Z" fill="white"/>
<path d="M28.6381 3.6875H29.7415V5.34133H30.3958V6.30896H29.7415V9.8253H28.6381V6.30896H28.0723V5.34133H28.6381V3.6875Z" fill="white"/>
<path d="M35.1825 7.9081H31.6386C31.6892 8.22748 31.8251 8.48045 32.0496 8.67018C32.274 8.85991 32.5554 8.95162 32.9 8.95162C33.311 8.95162 33.665 8.80615 33.9622 8.51207L34.8916 8.95795C34.6608 9.29314 34.3826 9.53978 34.0602 9.70105C33.7377 9.86232 33.3521 9.94138 32.9095 9.94138C32.2203 9.94138 31.6576 9.72003 31.2245 9.27417C30.7914 8.83146 30.5732 8.27491 30.5732 7.60769C30.5732 6.94047 30.7882 6.35546 31.2213 5.90327C31.6544 5.45108 32.195 5.22656 32.8462 5.22656C33.5386 5.22656 34.1013 5.45108 34.5344 5.90327C34.9675 6.35546 35.1856 6.95311 35.1856 7.69622V7.91127L35.1825 7.9081ZM34.0792 7.02268C34.0065 6.77286 33.8642 6.57049 33.6492 6.41238C33.4342 6.25427 33.1845 6.17838 32.9031 6.17838C32.5965 6.17838 32.3246 6.26693 32.0938 6.44085C31.9484 6.55152 31.8125 6.74441 31.6892 7.02268H34.0823H34.0792Z" fill="white"/>
<path d="M36.5636 3.75781H37.6669L39.0452 7.98881L40.4362 3.75781H41.5363L42.5322 9.82289H41.4383L40.7998 5.99347L39.5384 9.82289H38.5426L37.2907 5.99347L36.6394 9.82289H35.5361L36.5636 3.75781Z" fill="white"/>
<path d="M46.3514 5.34042H47.4547V9.82755H46.3514V9.35322C46.1364 9.56192 45.9214 9.71371 45.7033 9.80541C45.4883 9.89711 45.2512 9.94455 44.9983 9.94455C44.4293 9.94455 43.9393 9.72003 43.5251 9.271C43.111 8.82197 42.9023 8.26227 42.9023 7.59505C42.9023 6.92783 43.1015 6.33334 43.503 5.89063C43.9045 5.44793 44.3913 5.22656 44.9635 5.22656C45.2259 5.22656 45.4757 5.27717 45.7064 5.37836C45.9372 5.47955 46.1522 5.63132 46.3482 5.83686V5.34356L46.3514 5.34042ZM45.1911 6.26377C44.8497 6.26377 44.5684 6.38709 44.3407 6.63374C44.1163 6.88039 44.0025 7.1966 44.0025 7.57922C44.0025 7.96185 44.1163 8.2844 44.3471 8.53737C44.5778 8.79035 44.8592 8.91367 45.1943 8.91367C45.5294 8.91367 45.8266 8.79035 46.0573 8.5437C46.285 8.29705 46.3988 7.97449 46.3988 7.57606C46.3988 7.17762 46.285 6.87089 46.0573 6.6274C45.8297 6.38708 45.5421 6.26377 45.1911 6.26377Z" fill="white"/>
<path d="M48.3623 5.33575H49.4656V5.79425C49.7154 5.57922 49.943 5.4306 50.1453 5.34523C50.3476 5.25985 50.5563 5.21875 50.7681 5.21875C51.2044 5.21875 51.5742 5.37369 51.8777 5.68358C52.1338 5.94604 52.2602 6.33816 52.2602 6.85359V9.81971H51.1696V7.85599C51.1696 7.32159 51.1475 6.96426 51.1 6.79034C51.0526 6.61326 50.9704 6.48044 50.8534 6.38874C50.7365 6.29704 50.591 6.2496 50.4203 6.2496C50.1959 6.2496 50.0062 6.32551 49.845 6.47729C49.6837 6.62907 49.5731 6.84094 49.513 7.10973C49.4814 7.24886 49.4656 7.55243 49.4656 8.02043V9.81971H48.3623V5.33258V5.33575Z" fill="white"/>
<path d="M56.3631 5.34042H57.4664V9.82755H56.3631V9.35322C56.1481 9.56192 55.9331 9.71371 55.715 9.80541C55.5 9.89711 55.2629 9.94455 55.01 9.94455C54.441 9.94455 53.951 9.72003 53.5369 9.271C53.1227 8.82197 52.9141 8.26227 52.9141 7.59505C52.9141 6.92783 53.1132 6.33334 53.5147 5.89063C53.9162 5.44793 54.4031 5.22656 54.9753 5.22656C55.2376 5.22656 55.4874 5.27717 55.7182 5.37836C55.9489 5.47955 56.1639 5.63132 56.3599 5.83686V5.34356L56.3631 5.34042ZM55.2029 6.26377C54.8614 6.26377 54.5801 6.38709 54.3525 6.63374C54.128 6.88039 54.0142 7.1966 54.0142 7.57922C54.0142 7.96185 54.128 8.2844 54.3588 8.53737C54.5896 8.79035 54.8709 8.91367 55.206 8.91367C55.5411 8.91367 55.8383 8.79035 56.0691 8.5437C56.2967 8.29705 56.4105 7.97449 56.4105 7.57606C56.4105 7.17762 56.2967 6.87089 56.0691 6.6274C55.8415 6.38708 55.5538 6.26377 55.2029 6.26377Z" fill="white"/>
<path d="M61.6234 5.33725H62.7235V9.17928C62.7235 9.93821 62.5749 10.4948 62.2746 10.8521C61.8731 11.3359 61.2693 11.5794 60.46 11.5794C60.0301 11.5794 59.6665 11.5256 59.3725 11.4149C59.0785 11.3043 58.8319 11.143 58.6296 10.9311C58.4273 10.7193 58.2787 10.46 58.1807 10.1532H59.3978C59.5053 10.2797 59.6444 10.3746 59.8151 10.441C59.9858 10.5042 60.185 10.539 60.4157 10.539C60.7129 10.539 60.95 10.4916 61.1302 10.3999C61.3104 10.3082 61.4369 10.1849 61.5127 10.0362C61.5886 9.88762 61.6234 9.63149 61.6234 9.271C61.4305 9.47022 61.225 9.61251 61.0132 9.69789C60.8014 9.78326 60.558 9.82753 60.2893 9.82753C59.6981 9.82753 59.2018 9.60934 58.794 9.17612C58.3862 8.7429 58.1838 8.19269 58.1838 7.52547C58.1838 6.81398 58.3988 6.24163 58.8288 5.81158C59.2208 5.42263 59.6855 5.22656 60.2261 5.22656C60.479 5.22656 60.7192 5.274 60.9437 5.36886C61.1681 5.46373 61.3957 5.61867 61.6202 5.83686V5.34356L61.6234 5.33725ZM60.479 6.27324C60.1312 6.27324 59.8435 6.39341 59.6191 6.63057C59.3946 6.86773 59.2808 7.16815 59.2808 7.52864C59.2808 7.88912 59.3978 8.2085 59.6286 8.44882C59.8593 8.68915 60.1502 8.80615 60.5011 8.80615C60.852 8.80615 61.1239 8.68915 61.3483 8.45515C61.5696 8.22115 61.6834 7.91441 61.6834 7.53495C61.6834 7.15549 61.5728 6.85824 61.3483 6.62424C61.1239 6.39024 60.8362 6.27324 60.4853 6.27324H60.479Z" fill="white"/>
<path d="M68.0311 7.9081H64.4872C64.5378 8.22748 64.6738 8.48045 64.8982 8.67018C65.1227 8.85991 65.404 8.95162 65.7486 8.95162C66.1596 8.95162 66.5137 8.80615 66.8108 8.51207L67.7403 8.95795C67.5095 9.29314 67.2313 9.53978 66.9088 9.70105C66.5864 9.86232 66.2007 9.94138 65.7581 9.94138C65.0689 9.94138 64.5062 9.72003 64.0731 9.27417C63.64 8.83146 63.4219 8.27491 63.4219 7.60769C63.4219 6.94047 63.6368 6.35546 64.0699 5.90327C64.503 5.45108 65.0436 5.22656 65.6949 5.22656C66.3872 5.22656 66.9499 5.45108 67.383 5.90327C67.8161 6.35546 68.0343 6.95311 68.0343 7.69622V7.91127L68.0311 7.9081ZM66.931 7.02268C66.8583 6.77286 66.716 6.57049 66.501 6.41238C66.286 6.25427 66.0363 6.17838 65.7549 6.17838C65.4483 6.17838 65.1764 6.26693 64.9456 6.44085C64.8002 6.55152 64.6643 6.74441 64.541 7.02268H66.9341H66.931Z" fill="white"/>
<path d="M68.4612 5.34042H69.4064V5.90644C69.5076 5.68509 69.6435 5.51434 69.8142 5.4005C69.9849 5.2835 70.1683 5.22656 70.3706 5.22656C70.5129 5.22656 70.6615 5.26451 70.8195 5.34356L70.4749 6.31119C70.3453 6.24478 70.2378 6.21316 70.1556 6.21316C69.9849 6.21316 69.8427 6.32068 69.7257 6.53571C69.6087 6.75074 69.5487 7.1713 69.5487 7.79741V8.01561L69.5518 9.83069H68.458V5.34356L68.4612 5.34042Z" fill="white"/>
<path d="M1.10963 7.63281H0C0.297165 10.893 2.90211 13.4955 6.16145 13.7959V12.686C3.51225 12.395 1.40048 10.2859 1.1128 7.63598L1.10963 7.63281Z" fill="white"/>
<path d="M7.41039 0.214103V1.32403C10.0596 1.61495 12.1714 3.72411 12.459 6.37402H13.5687C13.2715 3.11381 10.6666 0.511344 7.40723 0.210938L7.41039 0.214103Z" fill="white"/>
<path d="M8.40618 7.59186H6.96462V8.21796H8.40618V9.16978L5.2733 10.2923V3.71503L8.40618 4.83759V6.37757H11.4411C11.1344 4.07867 9.16807 2.30469 6.78758 2.30469C4.19213 2.30469 2.08984 4.40753 2.08984 7.00368C2.08984 9.59982 4.19213 11.7027 6.78758 11.7027C9.18387 11.7027 11.1566 9.90973 11.4474 7.59186H8.40935H8.40618Z" fill="white"/>
</svg>
