<svg width="25" height="24" viewBox="0 0 25 24" fill="none" xmlns="http://www.w3.org/2000/svg">
<path d="M5.56328 7.98927C6.53696 6.31048 8.08816 5.04241 9.92806 4.42117C11.768 3.79993 13.7712 3.86786 15.5647 4.61231C17.3582 5.35676 18.8197 6.72699 19.6772 8.46787C20.5347 10.2087 20.7297 12.2016 20.2258 14.0754C19.722 15.9492 18.5536 17.5762 16.9384 18.6535C15.3231 19.7308 13.371 20.1849 11.4455 19.9314C9.52 19.6778 7.75237 18.7338 6.47175 17.2751C5.83878 16.5541 5.34611 15.7317 5.00961 14.85M5.00961 14.85C4.84305 14.4136 4.71475 13.9626 4.62664 13.5022M5.00961 14.85L4.62664 13.5022M4.62664 13.5022C4.56365 13.173 4.5212 12.8391 4.5 12.5022" stroke="#464A4E" stroke-width="2.5" stroke-linecap="round" stroke-linejoin="round"/>
<path d="M9.48905 8.00238H5.48511V4.00238" stroke="#464A4E" stroke-width="2.5" stroke-linecap="round" stroke-linejoin="round"/>
</svg>
