<svg width="24" height="24" viewBox="0 0 24 24" fill="none" xmlns="http://www.w3.org/2000/svg">
<path d="M6.2 3.8H10.6C11.9255 3.8 13 4.87452 13 6.2V10.6C13 11.9255 11.9255 13 10.6 13H6.2C4.87452 13 3.8 11.9255 3.8 10.6V6.2C3.8 4.87452 4.87452 3.8 6.2 3.8Z" stroke="#181D22" stroke-width="1.6"/>
<path d="M9.79961 7.39961H14.1996C15.5251 7.39961 16.5996 8.47413 16.5996 9.79961V14.1996C16.5996 15.5251 15.5251 16.5996 14.1996 16.5996H9.79961C8.47413 16.5996 7.39961 15.5251 7.39961 14.1996V9.79961C7.39961 8.47413 8.47413 7.39961 9.79961 7.39961Z" fill="white" stroke="#181D22" stroke-width="1.6"/>
<path d="M13.3992 10.9997H17.7992C19.1247 10.9997 20.1992 12.0742 20.1992 13.3997V17.7997C20.1992 19.1252 19.1247 20.1997 17.7992 20.1997H13.3992C12.0737 20.1997 10.9992 19.1252 10.9992 17.7997V13.3997C10.9992 12.0742 12.0737 10.9997 13.3992 10.9997Z" fill="#181D22" stroke="#181D22" stroke-width="1.6"/>
</svg>
