<svg width="24" height="24" viewBox="0 0 24 24" fill="none" xmlns="http://www.w3.org/2000/svg">
<path d="M15.2253 1.25977C14.8875 1.81049 14.5487 2.36074 14.2108 2.91137C14.1925 2.90405 14.1736 2.89787 14.1551 2.89107C13.2419 2.56259 12.4117 2.51334 11.9433 2.51948C11.015 2.52821 10.2647 2.7387 9.8117 2.90679C9.76966 2.83625 8.93468 1.48041 8.80013 1.26067C8.78006 1.22833 8.75648 1.19804 8.72977 1.1703C8.56403 0.998434 8.2767 0.940879 8.03971 1.07445C7.80201 1.2076 7.68262 1.51644 7.84525 1.78358C8.81934 3.37455 7.79691 1.68169 8.81969 3.36969C8.8283 3.38433 8.57219 3.49443 8.12282 3.8502C7.44858 4.38421 6.22423 6.10504 5.99805 8.09668H18.0078C17.9483 7.57221 17.8234 6.61051 17.6345 6.15285C17.2623 5.25019 16.712 4.59814 16.2632 4.17755C15.9406 3.87503 15.5829 3.60776 15.1969 3.38078C15.5269 2.85103 15.8535 2.31565 16.1802 1.78264C16.2841 1.61195 16.2746 1.40699 16.1762 1.25425C16.1315 1.18338 16.0695 1.12358 15.9954 1.0798C15.9213 1.03602 15.8372 1.00952 15.7501 1.00249C15.4887 0.977187 15.2801 1.15018 15.2253 1.25977ZM15.2057 5.25467C15.4031 5.53447 15.3679 5.88292 15.1275 6.03387C14.8874 6.18482 14.533 6.08038 14.3359 5.80058C14.1385 5.52073 14.1737 5.17228 14.4141 5.02133C14.6506 4.8726 15.0052 4.9701 15.2057 5.25467ZM9.60448 5.02223C9.84482 5.17318 9.88 5.52163 9.68269 5.80147C9.48553 6.08127 9.13034 6.18571 8.89005 6.03476C8.64985 5.88382 8.61467 5.53537 8.81184 5.25552C9.0124 4.97124 9.36664 4.87279 9.60448 5.02223Z" fill="#464A4E"/>
<rect x="6" y="9" width="12" height="9" fill="#464A4E"/>
<rect x="8" y="17" width="3" height="6" fill="#464A4E"/>
<rect x="13" y="17" width="3" height="6" fill="#464A4E"/>
<rect x="19" y="9" width="2" height="8" fill="#464A4E"/>
<rect x="3" y="9" width="2" height="8" fill="#464A4E"/>
</svg>
