<svg width="24" height="24" viewBox="0 0 24 24" fill="none" xmlns="http://www.w3.org/2000/svg">
<path d="M19.9143 8.31955C18.5307 9.17457 17.6761 10.6403 17.6761 12.2689C17.6761 14.1011 18.7748 15.7704 20.4434 16.4626C20.1178 17.5212 19.6294 18.4984 19.019 19.3941C18.1237 20.6563 17.1877 21.9592 15.8041 21.9592C14.4204 21.9592 14.0135 21.1448 12.3856 21.1448C10.7985 21.1448 10.2288 21.9999 8.92651 21.9999C7.62425 21.9999 6.72894 20.8191 5.71155 19.3534C4.3686 17.3176 3.59538 14.9561 3.55469 12.4725C3.55469 8.4417 6.15921 6.28379 8.76372 6.28379C10.1474 6.28379 11.2869 7.17953 12.1415 7.17953C12.9554 7.17953 14.2576 6.24308 15.8041 6.24308C17.4319 6.20236 18.9783 6.97595 19.9143 8.31955ZM15.0715 4.53304C15.7634 3.71874 16.1296 2.70086 16.1703 1.64226C16.1703 1.52011 16.1703 1.35725 16.1296 1.23511C14.9495 1.35725 13.8507 1.92727 13.0775 2.823C12.3856 3.59659 11.9787 4.57376 11.938 5.63235C11.938 5.7545 11.938 5.87664 11.9787 5.99879C12.0601 5.99879 12.1822 6.0395 12.2635 6.0395C13.3623 5.95807 14.3797 5.38806 15.0715 4.53304Z" fill="#464A4E"/>
</svg>
