<svg width="25" height="24" viewBox="0 0 25 24" fill="none" xmlns="http://www.w3.org/2000/svg">
<path d="M15.8953 4.56994L21.4682 14.2225C22.9772 16.8361 21.0909 20.1031 18.073 20.1031H6.92724C3.90931 20.1031 2.02311 16.8361 3.53207 14.2225L9.10496 4.56994C10.6139 1.95634 14.3863 1.95634 15.8953 4.56994Z" fill="#FFC60A" stroke="#050506"/>
<path d="M13.8479 8.47674L13.5545 12.927C13.5237 13.3938 13.1362 13.7566 12.6684 13.7566C12.2007 13.7566 11.8131 13.3938 11.7824 12.927L11.4889 8.47674C11.444 7.79478 11.985 7.21691 12.6684 7.21691C13.3519 7.21691 13.8929 7.79478 13.8479 8.47674Z" fill="#050506" stroke="#050506" stroke-width="0.434059"/>
<circle cx="12.6681" cy="16.7831" r="0.945262" fill="#050506" stroke="#050506" stroke-width="0.434059"/>
</svg>
