<svg width="24" height="24" viewBox="0 0 24 24" fill="none" xmlns="http://www.w3.org/2000/svg">
<path fill-rule="evenodd" clip-rule="evenodd" d="M19.887 20.4941C20.1189 20.0468 20.25 19.5387 20.25 19V5C20.25 3.20507 18.7949 1.75 17 1.75H7.95891L9.54982 4.25H17C17.4142 4.25 17.75 4.58579 17.75 5V17.136L19.887 20.4941ZM15.3365 18L17.9511 22.1086C17.6503 22.2005 17.3309 22.25 17 22.25H7C5.20507 22.25 3.75 20.7949 3.75 19V18C3.75 17.9144 3.75861 17.8308 3.775 17.75C3.75861 17.6692 3.75 17.5856 3.75 17.5V5C3.75 3.82803 4.37034 2.80094 5.30057 2.22918L6.64373 4.33986C6.40926 4.46666 6.25 4.71473 6.25 5V17.5C6.25 17.5856 6.24139 17.6692 6.225 17.75C6.24139 17.8308 6.25 17.9144 6.25 18H15.3365Z" fill="#959799"/>
<path d="M4 2L17 22" stroke="#959799" stroke-width="2.5" stroke-linecap="round"/>
<path d="M11 20H13" stroke="white" stroke-linecap="round"/>
</svg>
