<svg width="24" height="24" viewBox="0 0 24 24" fill="none" xmlns="http://www.w3.org/2000/svg">
<path d="M11.1033 2.81699C11.4701 2.07374 12.5299 2.07374 12.8967 2.81699L15.0001 7.07896C15.1458 7.37411 15.4274 7.57868 15.7531 7.62601L20.4565 8.30945C21.2767 8.42863 21.6042 9.4366 21.0107 10.0151L17.6073 13.3326C17.3716 13.5624 17.264 13.8934 17.3197 14.2178L18.1231 18.9021C18.2632 19.719 17.4058 20.342 16.6722 19.9563L12.4653 17.7446C12.174 17.5915 11.826 17.5915 11.5347 17.7446L7.32784 19.9563C6.59421 20.342 5.73677 19.719 5.87689 18.9021L6.68032 14.2178C6.73596 13.8934 6.62841 13.5624 6.39272 13.3326L2.98933 10.0151C2.39581 9.4366 2.72332 8.42863 3.54354 8.30945L8.24691 7.62601C8.57262 7.57868 8.85419 7.37411 8.99985 7.07896L11.1033 2.81699Z" fill="#FFC60A" stroke="#201D30" stroke-linejoin="round"/>
</svg>
