<svg width="24" height="24" viewBox="0 0 24 24" fill="none" xmlns="http://www.w3.org/2000/svg">
<mask id="path-1-inside-1_1013_488" fill="white">
<path fill-rule="evenodd" clip-rule="evenodd" d="M13.3411 2H7C5.34315 2 4 3.34315 4 5V19C4 20.6569 5.34315 22 7 22H17C18.6569 22 20 20.6569 20 19V8.24268L13.3411 2Z"/>
</mask>
<path d="M13.3411 2L15.051 0.176157L14.3298 -0.5H13.3411V2ZM20 8.24268H22.5V7.1596L21.7099 6.41883L20 8.24268ZM7 4.5H13.3411V-0.5H7V4.5ZM6.5 5C6.5 4.72386 6.72386 4.5 7 4.5V-0.5C3.96243 -0.5 1.5 1.96243 1.5 5H6.5ZM6.5 19V5H1.5V19H6.5ZM7 19.5C6.72386 19.5 6.5 19.2761 6.5 19H1.5C1.5 22.0376 3.96243 24.5 7 24.5V19.5ZM17 19.5H7V24.5H17V19.5ZM17.5 19C17.5 19.2761 17.2761 19.5 17 19.5V24.5C20.0376 24.5 22.5 22.0376 22.5 19H17.5ZM17.5 8.24268V19H22.5V8.24268H17.5ZM21.7099 6.41883L15.051 0.176157L11.6313 3.82384L18.2901 10.0665L21.7099 6.41883Z" fill="#464A4E" mask="url(#path-1-inside-1_1013_488)"/>
<mask id="path-3-inside-2_1013_488" fill="white">
<path fill-rule="evenodd" clip-rule="evenodd" d="M13.3452 2.00342C12.2972 2.06629 11.4668 2.93605 11.4668 3.99978V7.99978C11.4668 9.10435 12.3622 9.99978 13.4668 9.99978H18.0001C19.0268 9.99978 19.8728 9.22621 19.987 8.23015L13.3452 2.00342Z"/>
</mask>
<path d="M13.3452 2.00342L15.055 0.179575L14.2698 -0.556551L13.1954 -0.492095L13.3452 2.00342ZM19.987 8.23015L22.4707 8.515L22.614 7.26609L21.6969 6.40631L19.987 8.23015ZM13.9668 3.99978C13.9668 4.26661 13.7591 4.48308 13.4949 4.49893L13.1954 -0.492095C10.8353 -0.350502 8.9668 1.6055 8.9668 3.99978H13.9668ZM13.9668 7.99978V3.99978H8.9668V7.99978H13.9668ZM13.4668 7.49978C13.7429 7.49978 13.9668 7.72364 13.9668 7.99978H8.9668C8.9668 10.4851 10.9815 12.4998 13.4668 12.4998V7.49978ZM18.0001 7.49978H13.4668V12.4998H18.0001V7.49978ZM17.5033 7.9453C17.5321 7.69365 17.7417 7.49978 18.0001 7.49978V12.4998C20.3118 12.4998 22.2134 10.7588 22.4707 8.515L17.5033 7.9453ZM21.6969 6.40631L15.055 0.179575L11.6353 3.82726L18.2772 10.054L21.6969 6.40631Z" fill="#464A4E" mask="url(#path-3-inside-2_1013_488)"/>
<path d="M9 13L13 13" stroke="#464A4E" stroke-width="2.5" stroke-linecap="round"/>
<path d="M9 17L15 17" stroke="#464A4E" stroke-width="2.5" stroke-linecap="round"/>
</svg>
