<svg width="25" height="24" viewBox="0 0 25 24" fill="none" xmlns="http://www.w3.org/2000/svg">
<path d="M6.78571 3C5.52335 3 4.5 3.9481 4.5 5.11765C4.5 6.28719 5.52335 7.23529 6.78571 7.23529H14.9286C15.4809 7.23529 15.9286 7.68301 15.9286 8.23529V21H19.5C20.0523 21 20.5 20.5523 20.5 20V5C20.5 3.89543 19.6046 3 18.5 3H6.78571Z" stroke="#464A4E" stroke-width="2.5"/>
<path d="M4.5 5V20C4.5 20.5523 4.94772 21 5.5 21H19.5" stroke="#464A4E" stroke-width="2.5" stroke-linecap="round"/>
<path d="M7.5 8H11.5V13.2757C11.5 13.543 11.1769 13.6769 10.9879 13.4879L9.5 12L8.01213 13.4879C7.82314 13.6769 7.5 13.543 7.5 13.2757V8Z" fill="#464A4E"/>
</svg>
