<svg width="24" height="24" viewBox="0 0 24 24" fill="none" xmlns="http://www.w3.org/2000/svg">
<path d="M7 3L17 21" stroke="#464A4E" stroke-width="2.58" stroke-linecap="round"/>
<path fill-rule="evenodd" clip-rule="evenodd" d="M4.25 12C4.25 9.92893 5.92893 8.25 8 8.25C8.69036 8.25 9.25 7.69036 9.25 7C9.25 6.30964 8.69036 5.75 8 5.75C4.54822 5.75 1.75 8.54822 1.75 12C1.75 15.4518 4.54822 18.25 8 18.25H10C10.6904 18.25 11.25 17.6904 11.25 17C11.25 16.3096 10.6904 15.75 10 15.75H8C5.92893 15.75 4.25 14.0711 4.25 12ZM19.75 12C19.75 9.92893 18.0711 8.25 16 8.25H14C13.3096 8.25 12.75 7.69036 12.75 7C12.75 6.30964 13.3096 5.75 14 5.75H16C19.4518 5.75 22.25 8.54822 22.25 12C22.25 14.4386 20.8534 16.5509 18.8165 17.5809L17.6005 15.3923C18.871 14.7918 19.75 13.4985 19.75 12ZM16.3781 13.1918C16.8836 13.0316 17.25 12.5586 17.25 12C17.25 11.3096 16.6904 10.75 16 10.75H15.0215L16.3781 13.1918ZM11.5896 10.75L12.9785 13.25H8C7.30964 13.25 6.75 12.6904 6.75 12C6.75 11.3096 7.30964 10.75 8 10.75H11.5896ZM14.8247 16.5732L15.7414 18.2232C15.1751 18.1041 14.75 17.6017 14.75 17C14.75 16.8501 14.7764 16.7064 14.8247 16.5732Z" fill="#464A4E"/>
</svg>
