<svg width="25" height="24" viewBox="0 0 25 24" fill="none" xmlns="http://www.w3.org/2000/svg">
<g clip-path="url(#clip0_1013_614)">
<path d="M19 5.0528L21 3.00006" stroke="#464A4E" stroke-width="2.5" stroke-linecap="round"/>
<path d="M15.3862 3.26837V1.58787" stroke="#464A4E" stroke-width="2.5" stroke-linecap="round"/>
<path d="M20.7051 8.58698H22.3856" stroke="#464A4E" stroke-width="2.10062" stroke-linecap="round"/>
<path d="M3.94107 17.5476C3.41112 17.0176 3.29615 16.2008 3.65924 15.5451L9.52576 4.95164C10.0671 3.97409 11.394 3.78733 12.1842 4.57748L18.9285 11.3218C19.7187 12.112 19.5319 13.4389 18.5544 13.9802L7.96085 19.8468C7.30521 20.2099 6.48838 20.0949 5.95843 19.5649L3.94107 17.5476Z" stroke="#464A4E" stroke-width="2.5" stroke-linecap="round"/>
<path d="M10.0009 19.9489C10.445 20.4171 11.0088 20.7628 11.6338 20.9411C12.5235 21.1948 13.4645 21.0881 14.2496 20.6447C15.0348 20.2012 15.6 19.4572 15.8207 18.5763C15.968 17.9882 15.9538 17.3713 15.7874 16.7875" stroke="#464A4E" stroke-width="2.5" stroke-linecap="round"/>
</g>
<defs>
<clipPath id="clip0_1013_614">
<rect width="24" height="24" fill="white" transform="translate(0.5)"/>
</clipPath>
</defs>
</svg>
