<svg width="25" height="24" viewBox="0 0 25 24" fill="none" xmlns="http://www.w3.org/2000/svg">
<path d="M10.1486 21.7345C10.9197 21.911 11.7091 22 12.5016 22C13.2923 21.9993 14.0803 21.9097 14.8493 21.733C15.0515 21.6863 15.2337 21.581 15.3712 21.4314C15.5087 21.2818 15.5948 21.0952 15.6178 20.8969L15.794 19.3614C15.824 19.0868 15.955 18.8316 16.1637 18.6414C16.3723 18.4512 16.6447 18.3386 16.9321 18.3238C17.1235 18.3158 17.3138 18.3503 17.489 18.4238L18.9524 19.0394C19.0797 19.0943 19.2175 19.1231 19.357 19.124C19.4965 19.1248 19.6347 19.0977 19.7626 19.0444C19.8914 18.9918 20.0066 18.9138 20.1015 18.8153C21.1772 17.7026 21.9805 16.3738 22.4529 14.9256C22.5148 14.7335 22.513 14.5277 22.4476 14.3366C22.3822 14.1455 22.2565 13.9787 22.0879 13.8591L20.7877 12.939C20.6328 12.8312 20.5067 12.6897 20.4198 12.5261C20.3329 12.3625 20.2876 12.1816 20.2876 11.998C20.2876 11.8144 20.3329 11.6335 20.4198 11.4699C20.5067 11.3063 20.6328 11.1648 20.7877 11.057L22.0838 10.1389C22.2529 10.0192 22.3789 9.85189 22.4443 9.6603C22.5097 9.4687 22.5113 9.26232 22.4487 9.06985C21.9771 7.62114 21.1727 6.29231 20.0948 5.18116C19.9518 5.03506 19.7652 4.93499 19.5606 4.8947C19.3559 4.85441 19.1433 4.87587 18.9519 4.95615L17.489 5.57418C17.3378 5.63968 17.173 5.67418 17.0062 5.67418C16.7059 5.6734 16.4165 5.56646 16.1934 5.37383C15.9702 5.1812 15.8289 4.91641 15.7966 4.63013L15.6193 3.10006C15.5964 2.89931 15.5088 2.71043 15.3686 2.55975C15.2284 2.40907 15.0427 2.30412 14.8373 2.25951C14.0721 2.09582 13.2912 2.00885 12.5073 2C11.718 2.00902 10.9318 2.09615 10.1611 2.26001C9.95592 2.30416 9.77021 2.40872 9.62998 2.55907C9.48976 2.70942 9.40204 2.89804 9.3791 3.09855L9.20183 4.62963C9.16815 4.91638 9.02562 5.18122 8.80142 5.37367C8.57233 5.56011 8.28374 5.66595 7.9834 5.67368C7.81773 5.67358 7.65387 5.64055 7.50218 5.57668L6.04235 4.95865C5.85033 4.87758 5.63678 4.85578 5.43127 4.89628C5.22577 4.93677 5.03848 5.03755 4.89534 5.18466C3.81921 6.29627 3.01583 7.62457 2.54397 9.07235C2.48155 9.26476 2.48316 9.47103 2.54856 9.66252C2.61396 9.85401 2.73992 10.0212 2.90893 10.1409L4.20609 11.059C4.43782 11.2232 4.60158 11.4607 4.66845 11.7295C4.73532 11.9983 4.70101 12.2811 4.57157 12.528C4.48546 12.6917 4.36045 12.8337 4.20661 12.9425L2.90841 13.8621C2.7396 13.9817 2.61378 14.1488 2.54839 14.34C2.48299 14.5313 2.48127 14.7374 2.54345 14.9296C3.014 16.379 3.81751 17.7087 4.89482 18.8208C5.03712 18.968 5.22372 19.069 5.42866 19.1097C5.63359 19.1503 5.84665 19.1287 6.03818 19.0479L7.50739 18.4293C7.65911 18.3653 7.82282 18.3323 7.98861 18.3323H7.99278C8.2919 18.3329 8.58036 18.4389 8.80336 18.6301C9.02636 18.8213 9.16835 19.0844 9.20236 19.3694L9.37858 20.8979C9.40153 21.0964 9.48781 21.2833 9.62563 21.433C9.76345 21.5828 9.9461 21.688 10.1486 21.7345ZM12.4979 15.1252C11.6337 15.1252 10.8049 14.7959 10.1938 14.2098C9.58268 13.6237 9.23937 12.8288 9.23937 12C9.23937 11.1712 9.58268 10.3763 10.1938 9.79018C10.8049 9.2041 11.6337 8.87484 12.4979 8.87484C13.3621 8.87484 14.191 9.2041 14.8021 9.79018C15.4132 10.3763 15.7565 11.1712 15.7565 12C15.7565 12.8288 15.4132 13.6237 14.8021 14.2098C14.191 14.7959 13.3621 15.1252 12.4979 15.1252Z" fill="#464A4E"/>
</svg>
