<svg width="24" height="24" viewBox="0 0 24 24" fill="none" xmlns="http://www.w3.org/2000/svg">
<path d="M8.5607 2.50452C9.08579 2.3462 9.64928 2.3725 10.1573 2.57904C10.6654 2.78559 11.0874 3.15992 11.3531 3.63972L11.4419 3.81852L12.2363 5.58371C12.4769 6.11959 12.5549 6.71432 12.4606 7.29412C12.3663 7.87393 12.1039 8.41329 11.7059 8.84532L11.5463 9.00372L10.2947 10.1713C10.0691 10.3849 10.2383 11.2117 11.0543 12.6253C11.7887 13.8973 12.3863 14.4913 12.6803 14.5237H12.7319L12.7955 14.5117L15.2555 13.7593C15.5861 13.6579 15.9389 13.6539 16.2718 13.7478C16.6046 13.8416 16.9034 14.0293 17.1323 14.2885L17.2415 14.4265L18.8699 16.6825C19.189 17.1247 19.3481 17.6624 19.3208 18.207C19.2935 18.7517 19.0816 19.2708 18.7199 19.6789L18.5735 19.8301L17.9231 20.4469C17.3391 21 16.6085 21.3738 15.8182 21.5238C15.0279 21.6737 14.2112 21.5936 13.4651 21.2929C11.1431 20.3569 9.0335 18.2185 7.1171 14.8993C5.19709 11.5717 4.3991 8.67132 4.7555 6.18732C4.86334 5.43644 5.17254 4.72878 5.65026 4.13951C6.12797 3.55024 6.75636 3.10135 7.4687 2.84051L7.7003 2.76372L8.5607 2.50452Z" fill="#93B0F8"/>
</svg>
