<svg width="72" height="56" viewBox="0 0 72 56" fill="none" xmlns="http://www.w3.org/2000/svg">
<circle cx="28" cy="28" r="9" stroke="white" stroke-width="1.5"/>
<path d="M28 37C26.3431 37 25 32.9706 25 28C25 23.0294 26.3431 19 28 19" stroke="white" stroke-width="1.5"/>
<path d="M28 37C29.6569 37 31 32.9706 31 28C31 23.0294 29.6569 19 28 19" stroke="white" stroke-width="1.5"/>
<path d="M19 28H37" stroke="white" stroke-width="1.5"/>
<path d="M47.2873 30.3382C47.6335 30.7762 48.3613 30.7762 48.7075 30.3382L51.1702 27.223C51.5765 26.7091 51.1647 26 50.4601 26H45.5347C44.8301 26 44.4183 26.7091 44.8246 27.223L47.2873 30.3382Z" fill="white"/>
</svg>
