<svg width="24" height="24" viewBox="0 0 24 24" fill="none" xmlns="http://www.w3.org/2000/svg">
<path d="M10.5 3H5.5C4.39543 3 3.5 3.89543 3.5 5V19C3.5 20.1046 4.39543 21 5.5 21H15.5C16.6046 21 17.5 20.1046 17.5 19L17.5 16" stroke="#464A4E" stroke-width="2.5" stroke-linecap="round"/>
<path d="M15.1603 2.75472C16.5302 3.24781 18.0441 4.03414 19.2797 5.48783C20.5153 6.94151 21.2952 8.54869 21.5612 9.98013" stroke="#464A4E" stroke-width="2.5" stroke-linecap="round"/>
<path d="M13.1604 7.33097C14.2011 7.43669 15.2107 7.93479 15.9489 8.80329C16.6871 9.67179 17.016 10.7484 16.9527 11.7925" stroke="#464A4E" stroke-width="2.5" stroke-linecap="round"/>
<circle cx="11.376" cy="12.8758" r="2.04028" transform="rotate(-40.3644 11.376 12.8758)" fill="#464A4E"/>
</svg>
