<svg width="24" height="24" viewBox="0 0 24 24" fill="none" xmlns="http://www.w3.org/2000/svg">
<path d="M15.3953 4.56994L20.9682 14.2225C22.4772 16.8361 20.5909 20.1031 17.573 20.1031H6.42724C3.40931 20.1031 1.52311 16.8361 3.03207 14.2225L8.60496 4.56994C10.1139 1.95634 13.8863 1.95634 15.3953 4.56994Z" fill="#FF8484" stroke="#050506"/>
<path d="M13.3479 8.47674L13.0545 12.927C13.0237 13.3938 12.6362 13.7566 12.1684 13.7566C11.7007 13.7566 11.3131 13.3938 11.2824 12.927L10.9889 8.47674C10.944 7.79478 11.485 7.21691 12.1684 7.21691C12.8519 7.21691 13.3929 7.79478 13.3479 8.47674Z" fill="#050506" stroke="#050506" stroke-width="0.434059"/>
<circle cx="12.1681" cy="16.7831" r="0.945262" fill="#050506" stroke="#050506" stroke-width="0.434059"/>
</svg>
