<svg width="120" height="25" viewBox="0 0 120 25" fill="none" xmlns="http://www.w3.org/2000/svg">
<path d="M41.4907 4.39499V0.417969H26.7148V23.5592H31.4549V13.9525H40.1333V9.97196H31.4549V4.39499H41.4907Z" fill="white"/>
<path d="M51.2307 0.138672H50.2355L39.7778 23.5612H44.8484L47.0251 18.3922H54.3567L56.5896 23.5612H61.6602L51.2307 0.138672ZM52.6724 14.4679H48.6989L49.7784 11.9291L50.6716 9.67508L51.5682 11.9115L52.6689 14.4679H52.6724Z" fill="white"/>
<path d="M73.8809 10.2502L72.1824 9.65948C69.3869 8.7171 68.3953 7.90833 68.3953 6.56859C68.3953 4.98622 69.626 4.00515 71.6058 4.00515C73.5855 4.00515 75.3402 4.53613 77.1757 5.67192L77.4957 5.86883L79.5844 2.49311L79.2715 2.29267C76.8487 0.727886 74.4118 0 71.6022 0C66.9325 0 63.7361 2.59157 63.6482 6.442C63.5673 9.69113 65.3537 11.8643 69.1127 13.088L71.7464 13.9354C74.985 14.9692 75.305 16.2984 75.2171 17.3357C75.0975 18.8091 73.6277 19.7972 71.5601 19.7972C71.4335 19.7972 71.3069 19.7902 71.1803 19.7866C69.3482 19.6741 66.9888 18.8056 65.4416 17.6803L65.1181 17.4447L62.9062 20.9013L63.1805 21.1123C65.3607 22.7826 68.3355 23.8692 71.1381 24.0168C71.3596 24.0274 71.5776 24.0344 71.7992 24.0344C76.5603 24.0344 79.9607 21.2389 80.0732 17.2338C80.1646 13.9284 78.2552 11.7728 73.8809 10.2502Z" fill="white"/>
<path d="M11.6259 0.34375H6.3584V4.88339H11.6259C15.5326 4.88339 18.6974 8.04813 18.6974 11.9513C18.6974 15.8545 15.5326 19.0263 11.6259 19.0263H6.3584V23.5659H11.6259C18.0363 23.5659 23.2335 18.3687 23.2335 11.9548C23.2335 5.54095 18.0363 0.34375 11.6259 0.34375Z" fill="white"/>
<path d="M11.6251 11.9512C11.6251 15.1582 9.02302 17.7638 5.81257 17.7638C2.60212 17.7638 0 15.1582 0 11.9512C0 8.74431 2.60212 6.13867 5.81257 6.13867C9.02302 6.13867 11.6251 8.74079 11.6251 11.9512Z" fill="#628CF5"/>
<path d="M14.7129 11.9547C14.7129 11.2374 14.4668 10.5377 14.0061 9.98207C13.8901 9.84493 13.6862 9.82735 13.549 9.93987C13.4084 10.0559 13.3908 10.2599 13.5068 10.4005C13.862 10.833 14.0659 11.3886 14.0659 11.9547C14.0659 12.3521 13.9991 12.6475 13.9182 12.9851C13.8268 13.4035 13.7143 13.8782 13.7143 14.6272C13.7143 15.5696 13.8057 16.4205 14.0026 17.2539C14.2101 17.1625 14.4105 17.0535 14.6039 16.9375C14.4105 16.0619 14.3683 15.2988 14.3683 14.6272C14.3683 13.9556 14.4668 13.5336 14.5582 13.1327C14.6426 12.7705 14.7164 12.4259 14.7164 11.9547H14.7129ZM10.3104 16.5225C10.2858 16.3467 10.1276 16.2201 9.94824 16.2412C9.77243 16.2658 9.64583 16.4241 9.66693 16.6034C9.69155 16.832 9.73375 17.057 9.76891 17.2891C9.77946 17.3489 9.79353 17.4086 9.80408 17.4719C10.0291 17.5458 10.2612 17.6091 10.4968 17.6548C10.423 17.275 10.3561 16.8988 10.3104 16.526V16.5225ZM13.2009 12.4013C13.2396 12.2712 13.2607 12.113 13.2607 11.9547C13.2607 11.0475 12.5257 10.3161 11.6185 10.3161C11.5658 10.3161 11.5165 10.3196 11.4673 10.3196C10.9047 10.3759 10.4194 10.6924 10.1592 11.2093C10.0045 11.5117 9.56496 12.8163 9.56496 14.8171C9.56496 14.9964 9.70913 15.1441 9.88847 15.1441C10.0678 15.1441 10.2155 14.9964 10.2155 14.8171C10.2155 12.9112 10.6269 11.7192 10.7394 11.5047C10.9082 11.1847 11.2141 10.9913 11.5693 10.9737C11.5869 10.9737 11.608 10.9596 11.622 10.9596C12.1706 10.9596 12.6172 11.4062 12.6172 11.9547C12.6172 12.0532 12.6031 12.1446 12.5785 12.2361C12.5468 12.3767 12.044 14.7643 12.7156 17.6583C12.9301 17.6161 13.1446 17.5669 13.3521 17.5036C12.7192 14.7327 13.2044 12.4259 13.2114 12.3978L13.2009 12.4013ZM11.9315 12.0462C11.9807 11.8739 11.8823 11.6981 11.71 11.6418C11.6783 11.6312 11.6467 11.6313 11.6115 11.6348C11.4744 11.6348 11.3478 11.7227 11.3091 11.8598C11.288 11.9407 10.9152 13.2593 10.975 15.232C10.9961 15.9845 11.0876 16.8355 11.281 17.7497C11.397 17.7533 11.5095 17.7673 11.6256 17.7673C11.7346 17.7673 11.8401 17.7568 11.9455 17.7497C11.2282 14.5428 11.928 12.0743 11.9315 12.0462ZM16.5555 8.88496C16.2215 8.35047 15.8065 7.86873 15.3213 7.46786C14.3156 6.638 13.0286 6.13867 11.6256 6.13867C11.07 6.13867 10.5355 6.21955 10.0291 6.36723C9.89902 6.43405 9.81814 6.57821 9.85682 6.7259C9.90605 6.79271 9.95528 6.85953 10.0045 6.92986C10.0748 6.97205 10.1663 6.98612 10.2577 6.96502C10.7007 6.84547 11.1614 6.78216 11.6185 6.78216C14.4738 6.78216 16.7911 9.10298 16.7911 11.9512C16.7911 12.5209 16.7243 12.9042 16.6505 13.305C16.5766 13.734 16.4922 14.1841 16.4922 14.8628C16.4922 14.9437 16.5028 15.021 16.5028 15.1019C17.09 14.1947 17.4346 13.1116 17.4346 11.9512C17.4346 10.7908 17.1076 9.7746 16.552 8.88144L16.5555 8.88496ZM11.615 7.50303C11.2247 7.50303 10.8414 7.55929 10.4722 7.65775C9.54738 7.90389 8.714 8.4419 8.1127 9.2155C7.99666 9.35967 8.02479 9.56362 8.16544 9.67614C8.30962 9.78867 8.51357 9.76054 8.62257 9.61988C9.17113 8.91309 9.9377 8.4419 10.7851 8.2485C11.0559 8.18872 11.3337 8.15707 11.615 8.15707C13.7143 8.15707 15.4197 9.85899 15.4197 11.9547C15.4197 12.4259 15.3564 12.8127 15.2861 13.2206C15.1876 13.8044 15.0786 14.4725 15.1525 15.4535L15.1701 15.6575C15.1841 15.8263 15.3248 15.9564 15.4936 15.9564C15.5041 15.9564 15.5147 15.9564 15.5252 15.9529C15.701 15.9388 15.8347 15.7771 15.8171 15.5977L15.7995 15.4114C15.7327 14.4971 15.8311 13.9028 15.9261 13.3297C15.9964 12.9112 16.0667 12.4822 16.0667 11.9583C16.0667 9.50384 14.073 7.50654 11.6115 7.50654L11.615 7.50303ZM9.00937 7.10918C8.93201 6.97908 8.77729 6.93337 8.63664 6.97205C6.94526 7.98828 5.81299 9.83438 5.81299 11.9512C5.81299 12.5314 5.9009 13.0905 6.05913 13.618C6.17869 11.9337 6.50923 10.5552 6.91713 9.80625C6.91713 9.79922 6.92768 9.78867 6.93119 9.7746C7.35667 8.85683 8.03885 8.08674 8.90388 7.55577C9.0586 7.45731 9.10431 7.25336 9.00937 7.10568V7.10918ZM7.69777 10.6256C7.52546 10.5693 7.34261 10.6642 7.28986 10.833C7.06833 11.5222 6.70263 12.9851 6.7378 15.0914C6.93823 15.4043 7.17031 15.6962 7.427 15.9634C7.2547 13.4773 7.66963 11.7754 7.90875 11.037C7.96501 10.8612 7.87358 10.6818 7.70128 10.6256H7.69777ZM11.2739 9.53549C11.3864 9.51791 11.5025 9.51087 11.615 9.51087C11.8858 9.51087 12.1495 9.55307 12.3992 9.64098C12.5679 9.69372 12.7578 9.6023 12.8141 9.43351C12.8704 9.26473 12.7789 9.07836 12.6101 9.02209C12.2902 8.9166 11.9596 8.86034 11.615 8.86034C11.4322 8.86034 11.2458 8.88144 11.0629 8.91661C10.1487 9.08539 9.34694 9.6445 8.89333 10.4814C8.89333 10.4814 8.89216 10.4837 8.88982 10.4884C8.44675 11.2902 7.90875 13.6532 8.29555 16.7124C8.52411 16.8742 8.76674 17.0148 9.01641 17.1379C8.50653 13.9134 9.09377 11.4554 9.46299 10.7908C9.46299 10.7873 9.47002 10.7803 9.47354 10.7768C9.84276 10.0981 10.5144 9.63746 11.2739 9.52845V9.53549Z" fill="white"/>
<path d="M91.7678 6.79102C95.2912 6.79102 97.5171 8.95359 97.5171 12.0902C97.5171 15.2268 95.2877 17.3964 91.81 17.3964H88.1389V23.5923H85.1465V6.79102H91.7643H91.7678ZM88.1389 9.21028V14.9842H91.49C93.4627 14.9842 94.5247 13.7956 94.5247 12.0937C94.5247 10.3918 93.4627 9.21028 91.49 9.21028H88.1389Z" fill="#628CF5"/>
<path d="M102.795 23.6014H99.8237V11.2097H102.538L102.644 12.3736C103.491 11.6106 105.084 10.9108 106.909 10.9952V13.5411C105.214 13.5024 103.643 13.8821 102.795 14.7718V23.5979V23.6014Z" fill="#628CF5"/>
<path d="M113.805 10.9883C117.581 10.9883 120.001 13.5974 120.001 17.4619C120.001 21.3264 117.581 23.9321 113.805 23.9321C110.028 23.9321 107.609 21.3194 107.609 17.4619C107.609 13.6045 110.028 10.9883 113.805 10.9883ZM113.805 21.5761C115.82 21.5761 117.05 19.8812 117.05 17.4619C117.05 15.0427 115.82 13.3443 113.805 13.3443C111.79 13.3443 110.559 15.0427 110.559 17.4619C110.559 19.8812 111.79 21.5761 113.805 21.5761Z" fill="#628CF5"/>
</svg>
