<svg width="33" height="10" viewBox="0 0 33 10" fill="none" xmlns="http://www.w3.org/2000/svg">
<g clip-path="url(#clip0_8080_6732)">
<path d="M16.9718 1.86758V0.242188H10.9297V9.70799H12.8663V5.77543H16.4185V4.15004H12.8663V1.86758H16.9718Z" fill="white"/>
<path d="M20.958 0.125H20.5479L16.2695 9.70443H18.3445L19.2338 7.58994H22.2326L23.1466 9.70443H25.2215L20.958 0.125ZM21.5459 5.98431H19.9205L20.3602 4.94683L20.7258 4.02298L21.0914 4.93695L21.5409 5.98431H21.5459Z" fill="white"/>
<path d="M30.2234 4.26471L29.5268 4.02263C28.3806 3.63728 27.9804 3.30627 27.9804 2.75789C27.9804 2.1107 28.4843 1.71053 29.2946 1.71053C30.1048 1.71053 30.8211 1.9279 31.5721 2.3923L31.7005 2.47135L32.5552 1.09298L32.4268 1.00899C31.4338 0.366736 30.4407 0.0703125 29.2896 0.0703125C27.3777 0.0703125 26.0734 1.12756 26.0339 2.70355C25.9993 4.03251 26.7305 4.92178 28.267 5.42076L29.344 5.76659C30.668 6.19147 30.8014 6.73491 30.7619 7.15979C30.7125 7.76251 30.1097 8.16763 29.2649 8.16763C29.2155 8.16763 29.1612 8.16763 29.1068 8.16763C28.3559 8.12316 27.3925 7.76745 26.7601 7.308L26.6267 7.20919L25.7227 8.62214L25.8363 8.71107C26.7305 9.39285 27.9458 9.83748 29.092 9.89677C29.1809 9.89677 29.2748 9.90171 29.3637 9.90171C31.3102 9.90171 32.7034 8.76048 32.7479 7.12026C32.7825 5.76659 32.0019 4.8872 30.2135 4.26471H30.2234Z" fill="white"/>
<path d="M4.75167 0.210938H2.59766V2.06853H4.75167C6.34742 2.06853 7.64674 3.36291 7.64674 4.95866C7.64674 6.55441 6.35236 7.85374 4.75167 7.85374H2.59766V9.71133H4.75167C7.37502 9.71133 9.49939 7.58695 9.49939 4.9636C9.49939 2.34025 7.37502 0.210938 4.75167 0.210938Z" fill="white"/>
<path d="M4.75266 4.96227C4.75266 6.27642 3.69048 7.3386 2.37633 7.3386C1.06219 7.3386 0 6.27642 0 4.96227C0 3.64812 1.06219 2.58594 2.37633 2.58594C3.69048 2.58594 4.75266 3.64812 4.75266 4.96227Z" fill="white"/>
<path d="M6.01607 4.96227C6.01607 4.67079 5.91233 4.38424 5.72953 4.15698C5.68013 4.10264 5.59614 4.09276 5.5418 4.13722C5.48251 4.18663 5.47757 4.26567 5.52697 4.32496C5.67025 4.50281 5.75423 4.73007 5.75423 4.96227C5.75423 5.1253 5.72459 5.24387 5.69495 5.3822C5.65543 5.55512 5.61096 5.74779 5.61096 6.0541C5.61096 6.43945 5.65049 6.78528 5.72953 7.12616C5.81352 7.08664 5.89751 7.04218 5.97655 6.99771C5.89751 6.64201 5.87774 6.32582 5.87774 6.0541C5.87774 5.78238 5.91727 5.60946 5.95679 5.44149C5.99137 5.29328 6.02101 5.15495 6.02101 4.96227H6.01607ZM4.21777 6.82974C4.20789 6.75564 4.14366 6.70623 4.06956 6.71611C4.00039 6.72599 3.94605 6.79022 3.95593 6.86432C3.96581 6.95819 3.98063 7.05206 3.99545 7.14593C3.99545 7.17063 4.00533 7.19533 4.01027 7.22003C4.10414 7.24967 4.19801 7.27438 4.29188 7.29414C4.26223 7.14099 4.23259 6.98289 4.21777 6.82974ZM5.39852 5.14506C5.41335 5.09072 5.42323 5.02649 5.42323 4.96227C5.42323 4.59174 5.12186 4.29038 4.75133 4.29038C4.73157 4.29038 4.71181 4.29038 4.69205 4.29038C4.45985 4.31508 4.26223 4.44353 4.15848 4.65596C4.09426 4.77947 3.9164 5.31304 3.9164 6.13314C3.9164 6.20725 3.97569 6.26654 4.0498 6.26654C4.1239 6.26654 4.18319 6.20725 4.18319 6.13314C4.18319 5.35256 4.35116 4.86346 4.39562 4.77947C4.46479 4.65102 4.5883 4.56704 4.73651 4.5621C4.74639 4.5621 4.75133 4.55716 4.75627 4.55716C4.98353 4.55716 5.16139 4.73995 5.16139 4.96227C5.16139 5.00179 5.15645 5.04132 5.14656 5.0759C5.13174 5.13518 4.92919 6.10844 5.20091 7.29414C5.28984 7.27438 5.37876 7.25462 5.46275 7.22991C5.20091 6.09856 5.40347 5.15001 5.40347 5.14012L5.39852 5.14506ZM4.87978 5.00179C4.89954 4.93263 4.86002 4.85852 4.79086 4.83876C4.77603 4.83876 4.76615 4.83876 4.75133 4.83876C4.69699 4.83876 4.64264 4.87334 4.62782 4.93263C4.61794 4.96721 4.46479 5.50571 4.48949 6.311C4.49937 6.6173 4.53395 6.96807 4.613 7.3386C4.65746 7.3386 4.70687 7.34354 4.75133 7.34354C4.7958 7.34354 4.84026 7.34354 4.88472 7.3386C4.59324 6.02446 4.87484 5.01661 4.87978 5.00673V5.00179ZM6.77196 3.70741C6.63362 3.49003 6.46565 3.29241 6.26803 3.12938C5.85798 2.78849 5.32936 2.58594 4.75627 2.58594C4.52901 2.58594 4.31164 2.62052 4.10414 2.67981C4.0498 2.70451 4.02015 2.76873 4.03497 2.82802C4.05474 2.85766 4.0745 2.88236 4.09426 2.912C4.1239 2.93177 4.15848 2.93671 4.19801 2.92683C4.3808 2.87742 4.56854 2.85272 4.75627 2.85272C5.92221 2.85272 6.87076 3.80128 6.87076 4.96721C6.87076 5.19941 6.84606 5.3575 6.81148 5.52053C6.78184 5.69839 6.74725 5.88118 6.74725 6.15785C6.74725 6.19243 6.74725 6.22207 6.74725 6.25665C6.98933 5.88612 7.12767 5.44149 7.12767 4.96721C7.12767 4.49293 6.99427 4.07794 6.76701 3.71235L6.77196 3.70741ZM4.75133 3.1442C4.59324 3.1442 4.43515 3.1689 4.28199 3.20843C3.90158 3.30724 3.56564 3.52955 3.31862 3.84574C3.27415 3.90502 3.28403 3.98901 3.33838 4.03347C3.39766 4.07794 3.48165 4.06806 3.52611 4.00877C3.75337 3.71729 4.06462 3.52955 4.41044 3.45051C4.51913 3.42581 4.63276 3.41098 4.75133 3.41098C5.61096 3.41098 6.30756 4.10758 6.30756 4.96227C6.30756 5.15495 6.28286 5.31304 6.25321 5.48101C6.21369 5.71815 6.16923 5.99481 6.19887 6.39499L6.20875 6.47897C6.21369 6.54814 6.27298 6.60248 6.34214 6.60248C6.34214 6.60248 6.35202 6.60248 6.35696 6.60248C6.43107 6.59754 6.48541 6.53332 6.47553 6.45921V6.3851C6.44095 6.00963 6.48047 5.76756 6.52 5.53536C6.54964 5.36244 6.57928 5.18953 6.57928 4.97215C6.57928 3.96925 5.76411 3.14914 4.75627 3.14914L4.75133 3.1442ZM3.68421 2.98117C3.65456 2.92682 3.59034 2.90706 3.53105 2.92683C2.8394 3.34182 2.375 4.0977 2.375 4.96227C2.375 5.19941 2.40958 5.42667 2.47381 5.64404C2.52321 4.95733 2.6566 4.38918 2.82458 4.08288C2.82458 4.08288 2.82458 4.073 2.82952 4.06806C3.00243 3.69259 3.28403 3.3764 3.6348 3.15902C3.69903 3.1195 3.71879 3.03551 3.67927 2.97623L3.68421 2.98117ZM3.1457 4.41883C3.07654 4.39412 3.00243 4.43365 2.97773 4.50281C2.8888 4.78442 2.73565 5.3822 2.75047 6.24677C2.83446 6.37522 2.92832 6.49379 3.03207 6.60248C2.96291 5.58476 3.13088 4.88816 3.22969 4.5868C3.25439 4.51763 3.21487 4.44353 3.1457 4.41883ZM4.60806 3.97419C4.65252 3.96431 4.70193 3.96431 4.74639 3.96431C4.86002 3.96431 4.96377 3.98407 5.06752 4.01865C5.13668 4.04336 5.21573 4.00383 5.23549 3.93467C5.26019 3.8655 5.22067 3.79139 5.1515 3.76669C5.02305 3.72223 4.88472 3.70247 4.74639 3.70247C4.67229 3.70247 4.59324 3.71235 4.51913 3.72717C4.14366 3.79634 3.8176 4.02359 3.6348 4.36942C3.45201 4.69549 3.23463 5.66381 3.39272 6.91373C3.48659 6.97795 3.5854 7.03724 3.68421 7.08664C3.47671 5.76755 3.71385 4.75971 3.867 4.49293C3.867 4.49293 3.867 4.49293 3.867 4.48799C4.02015 4.21133 4.29188 4.02359 4.60312 3.97913L4.60806 3.97419Z" fill="white"/>
</g>
<defs>
<clipPath id="clip0_8080_6732">
<rect width="33" height="10" fill="white"/>
</clipPath>
</defs>
</svg>
