<svg width="178" height="26" viewBox="0 0 178 26" fill="none" xmlns="http://www.w3.org/2000/svg">
<path d="M89.0762 8.26228H82.4063V12.2921H88.3145V14.4587H82.4063V18.9869H89.3482V21.1534H79.7188V6.0957H89.0871V8.26228H89.0762Z" fill="#628CF5"/>
<path d="M94.754 11.0478C95.5047 10.2137 96.4731 9.88867 97.583 9.88867C99.8135 9.88867 102.001 11.167 102.001 13.9402V21.1766H99.3239V14.1893C99.3239 12.7269 98.3664 12.0011 97.1477 12.0011C95.7006 12.0011 94.8954 13.0302 94.8954 14.2868V21.1766H92.2188V10.062H94.6669L94.7649 11.0478H94.754Z" fill="#628CF5"/>
<path d="M103.609 12.1457V10.0549H105.307V7.9425L107.983 6.76172V10.0549H110.486V12.1457H107.983V18.5371C107.983 19.0679 108.234 19.2954 108.767 19.317C109.344 19.3387 109.953 19.1979 110.508 19.1004L110.812 21.0828C110.073 21.332 108.919 21.462 108.103 21.462C106.177 21.4403 105.307 20.4545 105.307 18.6454V12.1348H103.609V12.1457Z" fill="#628CF5"/>
<path d="M114.658 16.6141C114.636 18.3257 115.974 19.3332 117.519 19.3224C118.814 19.3007 120.098 18.824 120.881 18.1957L122.144 19.8315C120.936 20.8173 119.347 21.4456 117.617 21.4673C113.885 21.5106 111.861 19.0732 111.883 15.6283C111.905 12.3568 113.776 9.86523 117.269 9.86523C120.762 9.86523 122.481 12.6818 122.481 15.195C122.481 15.5525 122.448 16.17 122.361 16.625H114.636L114.658 16.6141ZM114.625 14.5234H119.804C119.728 13.2126 118.912 12.0318 117.247 12.0101C115.659 11.9885 114.745 13.2668 114.625 14.5234Z" fill="#628CF5"/>
<path d="M127.255 21.1654H124.578V10.0508H127.026L127.124 11.0908C127.886 10.4083 129.322 9.78001 130.965 9.85584V12.1416C129.431 12.1091 128.016 12.4449 127.255 13.2465V21.1654Z" fill="#628CF5"/>
<path d="M134.937 10.0524L135.035 11.0382C135.819 10.2149 136.7 9.85742 137.886 9.85742C141.194 9.85742 142.815 12.5223 142.815 15.5339C142.815 18.7296 141.357 21.4703 137.832 21.4703C136.928 21.4703 135.96 20.972 135.177 20.2678V25.9984H132.5V10.0524H134.948H134.937ZM135.166 16.1622C135.166 18.0038 136.178 19.3904 137.712 19.3904C139.583 19.3904 140.138 17.408 140.138 15.5339C140.138 13.6598 139.583 11.959 137.636 11.959C136.189 11.959 135.166 13.2481 135.166 15.133V16.1622Z" fill="#628CF5"/>
<path d="M147.599 21.1654H144.922V10.0508H147.37L147.468 11.0908C148.23 10.4083 149.666 9.78001 151.309 9.85584V12.1416C149.775 12.1091 148.36 12.4449 147.599 13.2465V21.1654Z" fill="#628CF5"/>
<path d="M155.64 8.34031H152.734V5.71875H155.64V8.34031ZM155.52 21.1665H152.843V10.0519H155.52V21.1665Z" fill="#628CF5"/>
<path d="M161.601 21.4703C160.143 21.4161 158.522 20.842 157.391 19.9537L158.479 18.1879C159.382 18.7621 160.655 19.1954 161.58 19.2387C162.613 19.282 163.375 18.8812 163.495 18.1013C163.593 17.3971 163.114 16.9638 161.971 16.6388L160.437 16.2055C158.522 15.6964 157.706 14.6456 157.739 13.129C157.793 11.0165 159.589 9.85742 161.852 9.85742C163.288 9.85742 164.855 10.2907 165.943 11.1682L164.877 12.9015C163.963 12.3923 163.081 12.0998 161.95 12.0782C161.199 12.0565 160.481 12.3598 160.437 13.1073C160.394 13.9414 161.047 14.1148 162.2 14.4614L163.157 14.7431C165.399 15.4147 166.182 16.5955 166.106 18.2421C166.008 20.1487 164.18 21.5895 161.612 21.492L161.601 21.4703Z" fill="#628CF5"/>
<path d="M170.17 16.6141C170.148 18.3257 171.487 19.3332 173.043 19.3224C174.337 19.3007 175.621 18.824 176.405 18.1957L177.667 19.8315C176.459 20.8173 174.881 21.4456 173.141 21.4673C169.419 21.5106 167.385 19.0732 167.406 15.6283C167.428 12.3568 169.3 9.86523 172.792 9.86523C176.285 9.86523 178.004 12.6818 178.004 15.195C178.004 15.5525 177.961 16.17 177.885 16.625H170.159L170.17 16.6141ZM170.127 14.5234H175.306C175.23 13.2126 174.403 12.0318 172.749 12.0101C171.16 11.9885 170.246 13.2668 170.127 14.5234Z" fill="#628CF5"/>
<path d="M37.3697 3.94098V0.376953H24.0625V21.1328H28.3278V12.5098H36.151V8.94578H28.3278V3.94098H37.3697Z" fill="white"/>
<path d="M46.154 0.128906H45.2509L35.8281 21.1339H40.398L42.3566 16.4974H48.9612L50.9741 21.1339H55.5441L46.154 0.128906ZM47.4488 12.9767H43.869L44.8374 10.7018L45.6426 8.67606L46.4477 10.6802L47.4379 12.9767H47.4488Z" fill="white"/>
<path d="M66.553 9.19713L65.0188 8.66632C62.4945 7.82135 61.6131 7.09555 61.6131 5.8931C61.6131 4.47399 62.723 3.59652 64.5074 3.59652C66.2919 3.59652 67.8696 4.07317 69.5234 5.09146L69.8063 5.26479L71.6887 2.24241L71.4058 2.05825C69.2188 0.649974 67.0317 0 64.4965 0C60.2857 0 57.4132 2.31824 57.3261 5.77393C57.2499 8.68798 58.8603 10.6379 62.2442 11.732L64.6162 12.4903C67.5323 13.422 67.826 14.6136 67.739 15.5452C67.6302 16.8668 66.3027 17.7551 64.4421 17.7551C64.3333 17.7551 64.2136 17.7551 64.0939 17.7551C62.4401 17.6576 60.3183 16.8777 58.9256 15.8702L58.6318 15.6535L56.6406 18.7517L56.8909 18.9467C58.8603 20.4417 61.537 21.4166 64.0613 21.5466C64.2572 21.5466 64.4639 21.5575 64.6597 21.5575C68.9468 21.5575 72.0151 19.0551 72.1131 15.4585C72.1892 12.4903 70.4701 10.5621 66.5312 9.19713H66.553Z" fill="white"/>
<path d="M10.4706 0.310547H5.72656V4.38372H10.4706C13.9851 4.38372 16.8467 7.22194 16.8467 10.721C16.8467 14.22 13.9959 17.069 10.4706 17.069H5.72656V21.1422H10.4706C16.2483 21.1422 20.927 16.4841 20.927 10.7318C20.927 4.97953 16.2483 0.310547 10.4706 0.310547Z" fill="white"/>
<path d="M10.4673 10.7262C10.4673 13.6078 8.12792 15.9369 5.23364 15.9369C2.33936 15.9369 0 13.6078 0 10.7262C0 7.8447 2.33936 5.51562 5.23364 5.51562C8.12792 5.51562 10.4673 7.8447 10.4673 10.7262Z" fill="#628CF5"/>
<path d="M13.2535 10.7262C13.2535 10.0871 13.025 9.4588 12.6224 8.96049C12.5136 8.84133 12.3286 8.81966 12.2089 8.91715C12.0784 9.02548 12.0675 9.19881 12.1763 9.32881C12.4918 9.71879 12.6768 10.2171 12.6768 10.7262C12.6768 11.0837 12.6115 11.3437 12.5462 11.647C12.4592 12.0262 12.3613 12.4487 12.3613 13.1203C12.3613 13.9653 12.4483 14.7236 12.6224 15.4711C12.8074 15.3844 12.9924 15.2869 13.1664 15.1894C12.9924 14.4094 12.9488 13.7161 12.9488 13.1203C12.9488 12.5245 13.0359 12.1454 13.1229 11.777C13.1991 11.4521 13.2644 11.1487 13.2644 10.7262H13.2535ZM9.2929 14.8211C9.27113 14.6586 9.12968 14.5503 8.96647 14.5719C8.81414 14.5936 8.69446 14.7344 8.71622 14.8969C8.73798 15.1027 8.77062 15.3086 8.80326 15.5144C8.80326 15.5686 8.82502 15.6227 8.8359 15.6769C9.04264 15.7419 9.24937 15.796 9.45611 15.8394C9.39082 15.5036 9.32554 15.1569 9.2929 14.8211ZM11.8934 11.1271C11.926 11.0079 11.9478 10.8671 11.9478 10.7262C11.9478 9.91378 11.2841 9.25298 10.468 9.25298C10.4245 9.25298 10.381 9.25298 10.3374 9.25298C9.82605 9.30714 9.39082 9.58879 9.16233 10.0546C9.02088 10.3254 8.62917 11.4954 8.62917 13.2936C8.62917 13.4561 8.75974 13.5861 8.92295 13.5861C9.08616 13.5861 9.21673 13.4561 9.21673 13.2936C9.21673 11.582 9.58668 10.5096 9.6846 10.3254C9.83693 10.0438 10.109 9.85962 10.4354 9.84878C10.4571 9.84878 10.468 9.83795 10.4789 9.83795C10.9794 9.83795 11.3711 10.2388 11.3711 10.7262C11.3711 10.8129 11.3602 10.8996 11.3385 10.9754C11.3058 11.1054 10.8597 13.2395 11.4582 15.8394C11.654 15.796 11.8499 15.7527 12.0348 15.6986C11.4582 13.2178 11.9043 11.1379 11.9043 11.1162L11.8934 11.1271ZM10.7509 10.8129C10.7944 10.6613 10.7074 10.4988 10.5551 10.4554C10.5224 10.4554 10.5007 10.4554 10.468 10.4554C10.3483 10.4554 10.2286 10.5313 10.196 10.6613C10.1742 10.7371 9.83693 11.9179 9.89134 13.6836C9.9131 14.3553 9.98926 15.1244 10.1634 15.9369C10.2613 15.9369 10.3701 15.9477 10.468 15.9477C10.5659 15.9477 10.6639 15.9477 10.7618 15.9369C10.1198 13.0553 10.74 10.8454 10.7509 10.8237V10.8129ZM14.9182 7.97469C14.6136 7.49805 14.2436 7.06473 13.8084 6.70724C12.9053 5.95977 11.7411 5.51562 10.4789 5.51562C9.97838 5.51562 9.49963 5.59146 9.04264 5.72145C8.92295 5.77561 8.85767 5.91644 8.89031 6.04644C8.93383 6.11143 8.97735 6.1656 9.02088 6.2306C9.08616 6.27393 9.16233 6.28476 9.24937 6.2631C9.65196 6.15477 10.0654 6.1006 10.4789 6.1006C13.0468 6.1006 15.1359 8.18052 15.1359 10.7371C15.1359 11.2462 15.0815 11.5929 15.0053 11.9504C14.94 12.3404 14.8638 12.7412 14.8638 13.3478C14.8638 13.4236 14.8638 13.4886 14.8638 13.5645C15.397 12.752 15.7017 11.777 15.7017 10.7371C15.7017 9.69712 15.4079 8.78716 14.9074 7.98553L14.9182 7.97469ZM10.468 6.73974C10.1198 6.73974 9.77165 6.79391 9.43435 6.88057C8.59653 7.09723 7.85664 7.58471 7.3126 8.27801C7.21467 8.40801 7.23643 8.59217 7.35612 8.68966C7.48669 8.78716 7.67166 8.76549 7.76959 8.6355C8.27011 7.99636 8.95559 7.58471 9.71725 7.41138C9.95662 7.35722 10.2069 7.32472 10.468 7.32472C12.3613 7.32472 13.8955 8.85216 13.8955 10.7262C13.8955 11.1487 13.8411 11.4954 13.7758 11.8637C13.6887 12.3837 13.5908 12.9903 13.6561 13.8678L13.6778 14.052C13.6887 14.2036 13.8193 14.3228 13.9716 14.3228C13.9716 14.3228 13.9934 14.3228 14.0043 14.3228C14.1675 14.3119 14.2872 14.1711 14.2654 14.0086V13.8461C14.1892 13.0228 14.2763 12.492 14.3633 11.9829C14.4286 11.6037 14.4939 11.2246 14.4939 10.7479C14.4939 8.54884 12.6986 6.75058 10.4789 6.75058L10.468 6.73974ZM8.11777 6.38226C8.05249 6.26309 7.91104 6.21976 7.78047 6.2631C6.25717 7.17306 5.23438 8.83049 5.23438 10.7262C5.23438 11.2462 5.31054 11.7445 5.45199 12.2212C5.5608 10.7154 5.85458 9.46963 6.22452 8.79799C6.22452 8.79799 6.22452 8.77633 6.2354 8.76549C6.61623 7.94219 7.23643 7.24889 8.00897 6.77224C8.15042 6.68558 8.19394 6.50142 8.10689 6.37142L8.11777 6.38226ZM6.93177 9.53463C6.77944 9.48047 6.61623 9.56713 6.56183 9.71879C6.36597 10.3363 6.02867 11.647 6.06131 13.5428C6.24629 13.8245 6.45302 14.0844 6.68152 14.3228C6.52918 12.0912 6.89913 10.5638 7.11675 9.90295C7.17115 9.75129 7.0841 9.5888 6.93177 9.53463ZM10.1525 8.55967C10.2504 8.538 10.3592 8.538 10.4571 8.538C10.7074 8.538 10.9359 8.58134 11.1644 8.65717C11.3167 8.71133 11.4908 8.62467 11.5343 8.47301C11.5887 8.32135 11.5017 8.15885 11.3494 8.10469C11.0665 8.00719 10.7618 7.96386 10.4571 7.96386C10.2939 7.96386 10.1198 7.98553 9.95662 8.01802C9.12968 8.16969 8.41156 8.668 8.00897 9.4263C7.60638 10.1413 7.12763 12.2645 7.47581 15.0052C7.68254 15.1461 7.90016 15.2761 8.11777 15.3844C7.66078 12.492 8.18306 10.2821 8.52036 9.69712C8.52036 9.69712 8.52036 9.69712 8.52036 9.68629C8.85767 9.07965 9.45611 8.668 10.1416 8.5705L10.1525 8.55967Z" fill="white"/>
</svg>
