<svg width="168" height="34" viewBox="0 0 168 34" fill="none" xmlns="http://www.w3.org/2000/svg">
<path d="M52.4485 11.6599L50.5588 13.5646C49.359 12.2748 47.9717 11.6299 46.3745 11.6299C44.9872 11.6299 43.8249 12.1023 42.8876 13.0396C41.9503 13.977 41.4853 15.1168 41.4853 16.4591C41.4853 17.8013 41.9728 19.0236 42.9401 19.991C43.9149 20.9583 45.1147 21.4382 46.5395 21.4382C47.4693 21.4382 48.2492 21.2358 48.8866 20.8383C49.524 20.4409 50.0339 19.8185 50.4238 18.9712H46.3445V16.399H53.4383L53.4608 17.0064C53.4608 18.2662 53.1384 19.4585 52.501 20.5833C51.8636 21.7082 51.0312 22.5705 50.0189 23.1629C48.9991 23.7553 47.8143 24.0553 46.442 24.0553C44.9797 24.0553 43.675 23.7328 42.5276 23.0804C41.3803 22.428 40.473 21.5057 39.8056 20.3059C39.1382 19.1061 38.8008 17.8088 38.8008 16.4216C38.8008 14.5169 39.4157 12.8597 40.653 11.4574C42.1152 9.7852 44.0199 8.94531 46.367 8.94531C47.5968 8.94531 48.7366 9.17781 49.8089 9.64273C50.7088 10.0327 51.5936 10.7076 52.456 11.6599H52.4485Z" fill="white"/>
<path d="M62.8335 13.061H65.4505V23.7017H62.8335V22.5769C62.3235 23.0718 61.8136 23.4317 61.2962 23.6492C60.7863 23.8667 60.2239 23.9791 59.624 23.9791C58.2742 23.9791 57.1119 23.4467 56.1296 22.3819C55.1473 21.3171 54.6523 19.9898 54.6523 18.4076C54.6523 16.8254 55.1248 15.4156 56.0771 14.3658C57.0294 13.316 58.1842 12.791 59.5415 12.791C60.1639 12.791 60.7563 12.911 61.3037 13.151C61.8511 13.3909 62.361 13.7508 62.826 14.2383V13.0685L62.8335 13.061ZM60.0814 15.2506C59.2716 15.2506 58.6042 15.5431 58.0643 16.128C57.5318 16.7129 57.2619 17.4627 57.2619 18.3701C57.2619 19.2774 57.5319 20.0423 58.0793 20.6422C58.6267 21.2421 59.2941 21.5346 60.0889 21.5346C60.8838 21.5346 61.5887 21.2421 62.1361 20.6572C62.676 20.0723 62.9459 19.3074 62.9459 18.3626C62.9459 17.4177 62.676 16.6903 62.1361 16.1129C61.5961 15.543 60.9138 15.2506 60.0814 15.2506Z" fill="white"/>
<path d="M67.9243 9.13867H70.5414V13.0605H72.0936V15.3551H70.5414V23.6937H67.9243V15.3551H66.582V13.0605H67.9243V9.13867Z" fill="white"/>
<path d="M83.4449 19.15H75.0388C75.1588 19.9073 75.4812 20.5072 76.0136 20.9571C76.546 21.4071 77.2134 21.6245 78.0308 21.6245C79.0056 21.6245 79.8455 21.2796 80.5503 20.5822L82.755 21.6395C82.2076 22.4344 81.5477 23.0193 80.7828 23.4017C80.0179 23.7842 79.1031 23.9716 78.0533 23.9716C76.4185 23.9716 75.0838 23.4467 74.0565 22.3894C73.0291 21.3396 72.5117 20.0198 72.5117 18.4376C72.5117 16.8553 73.0216 15.4681 74.0489 14.3958C75.0763 13.3234 76.3585 12.791 77.9033 12.791C79.5455 12.791 80.8803 13.3234 81.9076 14.3958C82.9349 15.4681 83.4524 16.8853 83.4524 18.6475V19.1575L83.4449 19.15ZM80.8278 17.0503C80.6553 16.4579 80.3179 15.978 79.808 15.603C79.2981 15.2281 78.7057 15.0481 78.0383 15.0481C77.3109 15.0481 76.666 15.2581 76.1186 15.6705C75.7737 15.933 75.4512 16.3904 75.1588 17.0503H80.8353H80.8278Z" fill="white"/>
<path d="M86.7261 9.32031H89.3432L92.6127 19.3536L95.9121 9.32031H98.5217L100.884 23.7029H98.2892L96.7744 14.6219L93.7825 23.7029H91.4204L88.4509 14.6219L86.9061 23.7029H84.2891L86.7261 9.32031Z" fill="white"/>
<path d="M109.935 13.061H112.552V23.7017H109.935V22.5769C109.425 23.0718 108.915 23.4317 108.398 23.6492C107.888 23.8667 107.325 23.9791 106.726 23.9791C105.376 23.9791 104.213 23.4467 103.231 22.3819C102.249 21.3171 101.754 19.9898 101.754 18.4076C101.754 16.8254 102.226 15.4156 103.179 14.3658C104.131 13.316 105.286 12.791 106.643 12.791C107.265 12.791 107.858 12.911 108.405 13.151C108.953 13.3909 109.463 13.7508 109.927 14.2383V13.0685L109.935 13.061ZM107.183 15.2506C106.373 15.2506 105.706 15.5431 105.166 16.128C104.633 16.7129 104.363 17.4627 104.363 18.3701C104.363 19.2774 104.633 20.0423 105.181 20.6422C105.728 21.2421 106.396 21.5346 107.19 21.5346C107.985 21.5346 108.69 21.2421 109.238 20.6572C109.778 20.0723 110.047 19.3074 110.047 18.3626C110.047 17.4177 109.778 16.6903 109.238 16.1129C108.698 15.543 108.015 15.2506 107.183 15.2506Z" fill="white"/>
<path d="M114.707 13.0607H117.324V14.1479C117.917 13.638 118.456 13.2856 118.936 13.0831C119.416 12.8807 119.911 12.7832 120.414 12.7832C121.448 12.7832 122.326 13.1506 123.046 13.8855C123.653 14.5079 123.953 15.4377 123.953 16.66V23.6938H121.366V19.0371C121.366 17.7698 121.313 16.9225 121.201 16.51C121.088 16.0901 120.893 15.7752 120.616 15.5577C120.339 15.3402 119.994 15.2277 119.589 15.2277C119.056 15.2277 118.606 15.4077 118.224 15.7677C117.842 16.1276 117.579 16.63 117.437 17.2674C117.362 17.5974 117.324 18.3173 117.324 19.4271V23.6938H114.707V13.0531V13.0607Z" fill="white"/>
<path d="M133.681 13.061H136.298V23.7017H133.681V22.5769C133.171 23.0718 132.661 23.4317 132.144 23.6492C131.634 23.8667 131.072 23.9791 130.472 23.9791C129.122 23.9791 127.96 23.4467 126.977 22.3819C125.995 21.3171 125.5 19.9898 125.5 18.4076C125.5 16.8254 125.972 15.4156 126.925 14.3658C127.877 13.316 129.032 12.791 130.389 12.791C131.012 12.791 131.604 12.911 132.151 13.151C132.699 13.3909 133.209 13.7508 133.674 14.2383V13.0685L133.681 13.061ZM130.929 15.2506C130.119 15.2506 129.452 15.5431 128.912 16.128C128.38 16.7129 128.11 17.4627 128.11 18.3701C128.11 19.2774 128.38 20.0423 128.927 20.6422C129.474 21.2421 130.142 21.5346 130.937 21.5346C131.731 21.5346 132.436 21.2421 132.984 20.6572C133.524 20.0723 133.794 19.3074 133.794 18.3626C133.794 17.4177 133.524 16.6903 132.984 16.1129C132.444 15.543 131.761 15.2506 130.929 15.2506Z" fill="white"/>
<path d="M146.17 13.0633H148.78V22.1742C148.78 23.9739 148.427 25.2937 147.715 26.141C146.762 27.2883 145.33 27.8657 143.411 27.8657C142.391 27.8657 141.528 27.7382 140.831 27.4758C140.134 27.2133 139.549 26.8309 139.069 26.3285C138.589 25.8261 138.236 25.2112 138.004 24.4838H140.891C141.146 24.7838 141.476 25.0087 141.881 25.1662C142.286 25.3161 142.758 25.3986 143.306 25.3986C144.01 25.3986 144.573 25.2861 145 25.0687C145.428 24.8512 145.728 24.5588 145.908 24.2064C146.088 23.8539 146.17 23.2465 146.17 22.3917C145.713 22.8641 145.225 23.2015 144.723 23.404C144.22 23.6065 143.643 23.7114 143.006 23.7114C141.603 23.7114 140.426 23.194 139.459 22.1667C138.491 21.1394 138.011 19.8346 138.011 18.2524C138.011 16.5652 138.521 15.2079 139.541 14.1881C140.471 13.2657 141.573 12.8008 142.856 12.8008C143.456 12.8008 144.025 12.9133 144.558 13.1382C145.09 13.3632 145.63 13.7306 146.163 14.248V13.0782L146.17 13.0633ZM143.455 15.2829C142.631 15.2829 141.948 15.5678 141.416 16.1302C140.883 16.6926 140.613 17.405 140.613 18.2599C140.613 19.1147 140.891 19.8721 141.438 20.442C141.986 21.0119 142.676 21.2893 143.508 21.2893C144.34 21.2893 144.985 21.0119 145.518 20.457C146.043 19.9021 146.313 19.1747 146.313 18.2748C146.313 17.375 146.05 16.6701 145.518 16.1152C144.985 15.5603 144.303 15.2829 143.471 15.2829H143.455Z" fill="white"/>
<path d="M161.375 19.15H152.968C153.088 19.9073 153.411 20.5072 153.943 20.9571C154.476 21.4071 155.143 21.6245 155.96 21.6245C156.935 21.6245 157.775 21.2796 158.48 20.5822L160.685 21.6395C160.137 22.4344 159.477 23.0193 158.713 23.4017C157.948 23.7842 157.033 23.9716 155.983 23.9716C154.348 23.9716 153.013 23.4467 151.986 22.3894C150.959 21.3396 150.441 20.0198 150.441 18.4376C150.441 16.8553 150.951 15.4681 151.979 14.3958C153.006 13.3234 154.288 12.791 155.833 12.791C157.475 12.791 158.81 13.3234 159.837 14.3958C160.865 15.4681 161.382 16.8853 161.382 18.6475V19.1575L161.375 19.15ZM158.765 17.0503C158.593 16.4579 158.255 15.978 157.745 15.603C157.235 15.2281 156.643 15.0481 155.975 15.0481C155.248 15.0481 154.603 15.2581 154.056 15.6705C153.711 15.933 153.388 16.3904 153.096 17.0503H158.772H158.765Z" fill="white"/>
<path d="M162.386 13.061H164.629V14.4033C164.868 13.8783 165.191 13.4734 165.596 13.2035C166.001 12.926 166.436 12.791 166.916 12.791C167.253 12.791 167.606 12.881 167.98 13.0685L167.163 15.3631C166.856 15.2056 166.601 15.1306 166.406 15.1306C166.001 15.1306 165.663 15.3856 165.386 15.8955C165.108 16.4054 164.966 17.4027 164.966 18.8875V19.4049L164.973 23.7092H162.379V13.0685L162.386 13.061Z" fill="white"/>
<path d="M2.63206 18.4922H0C0.70488 26.2234 6.88384 32.3948 14.615 33.1072V30.4751C8.3311 29.7853 3.32195 24.7836 2.63957 18.4997L2.63206 18.4922Z" fill="#628CF5"/>
<path d="M17.5778 0.905944V3.538C23.8618 4.22789 28.8709 9.22951 29.5533 15.5134H32.1853C31.4805 7.78226 25.3015 1.61082 17.5703 0.898438L17.5778 0.905944Z" fill="#628CF5"/>
<path d="M19.9356 18.3992H16.5161V19.884H19.9356V22.1411L12.5043 24.8031V9.20578L19.9356 11.8678V15.5197H27.1343C26.407 10.0681 21.7428 5.86133 16.0962 5.86133C9.93977 5.86133 4.95312 10.848 4.95312 17.0044C4.95312 23.1609 9.93977 28.1476 16.0962 28.1476C21.7803 28.1476 26.4595 23.8958 27.1494 18.3992H19.9431H19.9356Z" fill="#628CF5"/>
<rect x="152.902" y="0.900391" width="15.0992" height="7.49873" rx="2.45658" fill="#628CF5"/>
<path d="M156.62 6.15039V3.11086H157.762C158.459 3.11086 158.833 3.53488 158.833 4.11844C158.833 4.70199 158.455 5.12182 157.754 5.12182H157.166V6.15039H156.62ZM157.166 4.67261H157.678C158.09 4.67261 158.275 4.4417 158.275 4.11844C158.275 3.79097 158.09 3.56846 157.678 3.56846H157.166V4.67261ZM159.12 6.15039V3.11086H160.262C160.959 3.11086 161.333 3.50129 161.333 4.08065C161.333 4.49418 161.144 4.80065 160.787 4.94549L161.442 6.15039H160.833L160.237 5.03785H159.666V6.15039H159.12ZM159.666 4.58024H160.178C160.59 4.58024 160.774 4.40392 160.774 4.08065C160.774 3.75739 160.59 3.56846 160.178 3.56846H159.666V4.58024ZM164.361 4.63062C164.361 5.61301 163.765 6.19237 162.968 6.19237C162.17 6.19237 161.574 5.60882 161.574 4.63062C161.574 3.64823 162.17 3.06887 162.968 3.06887C163.765 3.06887 164.361 3.64823 164.361 4.63062ZM163.811 4.63062C163.811 3.93791 163.463 3.56007 162.968 3.56007C162.472 3.56007 162.124 3.93791 162.124 4.63062C162.124 5.32333 162.472 5.70118 162.968 5.70118C163.463 5.70118 163.811 5.32333 163.811 4.63062Z" fill="white"/>
</svg>
