<svg width="172" height="32" viewBox="0 0 172 32" fill="none" xmlns="http://www.w3.org/2000/svg">
<path d="M53.7003 10.6988L51.7655 12.591C50.537 11.3097 49.1166 10.669 47.4812 10.669C46.0608 10.669 44.8708 11.1383 43.911 12.0695C42.9513 13.0008 42.4753 14.1331 42.4753 15.4666C42.4753 16.8002 42.9743 18.0145 43.9648 18.9755C44.9629 19.9365 46.1914 20.4133 47.6502 20.4133C48.6022 20.4133 49.4007 20.2122 50.0533 19.8173C50.706 19.4225 51.228 18.8042 51.6273 17.9624H47.4505V15.407H54.7138L54.7369 16.0105C54.7369 17.262 54.4067 18.4466 53.7541 19.564C53.1015 20.6815 52.2492 21.5382 51.2127 22.1268C50.1685 22.7153 48.9554 23.0133 47.5503 23.0133C46.0531 23.0133 44.7172 22.6929 43.5425 22.0448C42.3678 21.3967 41.4387 20.4804 40.7554 19.2884C40.0721 18.0964 39.7266 16.8076 39.7266 15.4294C39.7266 13.5372 40.3562 11.8908 41.623 10.4977C43.1202 8.83636 45.0704 8.00195 47.4736 8.00195C48.7327 8.00195 49.8998 8.23294 50.9977 8.69482C51.919 9.08221 52.8251 9.75269 53.708 10.6988H53.7003Z" fill="white"/>
<path d="M64.3375 12.0905H67.0171V22.6617H64.3375V21.5443C63.8154 22.036 63.2933 22.3935 62.7635 22.6096C62.2414 22.8256 61.6656 22.9374 61.0514 22.9374C59.6694 22.9374 58.4793 22.4084 57.4735 21.3506C56.4677 20.2927 55.9609 18.9741 55.9609 17.4022C55.9609 15.8303 56.4446 14.4297 57.4197 13.3867C58.3948 12.3438 59.5772 11.8223 60.9669 11.8223C61.6042 11.8223 62.2107 11.9415 62.7712 12.1799C63.3317 12.4183 63.8538 12.7758 64.3298 13.2601V12.0979L64.3375 12.0905ZM61.5197 14.2658C60.6905 14.2658 60.0072 14.5563 59.4544 15.1374C58.9092 15.7185 58.6328 16.4635 58.6328 17.3649C58.6328 18.2663 58.9093 19.0262 59.4697 19.6222C60.0302 20.2182 60.7136 20.5087 61.5274 20.5087C62.3413 20.5087 63.063 20.2182 63.6235 19.6371C64.1763 19.056 64.4527 18.2961 64.4527 17.3574C64.4527 16.4188 64.1763 15.6961 63.6235 15.1225C63.0706 14.5563 62.372 14.2658 61.5197 14.2658Z" fill="white"/>
<path d="M69.5462 8.19531H72.2258V12.0916H73.8151V14.3712H72.2258V22.6554H69.5462V14.3712H68.1719V12.0916H69.5462V8.19531Z" fill="white"/>
<path d="M85.4365 18.1397H76.8296C76.9525 18.8921 77.2826 19.4881 77.8277 19.9351C78.3729 20.3821 79.0562 20.5981 79.8931 20.5981C80.8912 20.5981 81.7511 20.2554 82.4729 19.5626L84.7302 20.613C84.1697 21.4027 83.494 21.9838 82.7109 22.3637C81.9278 22.7437 80.991 22.9299 79.9161 22.9299C78.2424 22.9299 76.8757 22.4084 75.8238 21.358C74.772 20.3151 74.2422 19.0039 74.2422 17.432C74.2422 15.8601 74.7643 14.4818 75.8161 13.4165C76.868 12.3512 78.1809 11.8223 79.7626 11.8223C81.444 11.8223 82.8107 12.3512 83.8626 13.4165C84.9145 14.4818 85.4442 15.8898 85.4442 17.6405V18.1472L85.4365 18.1397ZM82.757 16.0537C82.5804 15.4652 82.2349 14.9884 81.7128 14.6159C81.1907 14.2434 80.5841 14.0647 79.9008 14.0647C79.156 14.0647 78.4957 14.2733 77.9353 14.683C77.5821 14.9437 77.2519 15.3982 76.9525 16.0537H82.7646H82.757Z" fill="white"/>
<path d="M88.8 8.37305H91.4796L94.8272 18.3409L98.2054 8.37305H100.877L103.296 22.6618H100.639L99.0884 13.64L96.0249 22.6618H93.6064L90.5659 13.64L88.9843 22.6618H86.3047L88.8 8.37305Z" fill="white"/>
<path d="M112.564 12.0905H115.244V22.6617H112.564V21.5443C112.042 22.036 111.52 22.3935 110.99 22.6096C110.468 22.8256 109.892 22.9374 109.278 22.9374C107.896 22.9374 106.706 22.4084 105.7 21.3506C104.694 20.2927 104.188 18.9741 104.188 17.4022C104.188 15.8303 104.671 14.4297 105.646 13.3867C106.621 12.3438 107.804 11.8223 109.193 11.8223C109.831 11.8223 110.437 11.9415 110.998 12.1799C111.558 12.4183 112.08 12.7758 112.556 13.2601V12.0979L112.564 12.0905ZM109.746 14.2658C108.917 14.2658 108.234 14.5563 107.681 15.1374C107.136 15.7185 106.859 16.4635 106.859 17.3649C106.859 18.2663 107.136 19.0262 107.696 19.6222C108.257 20.2182 108.94 20.5087 109.754 20.5087C110.568 20.5087 111.29 20.2182 111.85 19.6371C112.403 19.056 112.679 18.2961 112.679 17.3574C112.679 16.4188 112.403 15.6961 111.85 15.1225C111.297 14.5563 110.599 14.2658 109.746 14.2658Z" fill="white"/>
<path d="M117.453 12.0901H120.133V13.1703C120.739 12.6637 121.292 12.3136 121.783 12.1124C122.275 11.9113 122.782 11.8145 123.296 11.8145C124.356 11.8145 125.254 12.1795 125.991 12.9095C126.613 13.5279 126.92 14.4517 126.92 15.666V22.6539H124.271V18.0275C124.271 16.7685 124.217 15.9267 124.102 15.517C123.987 15.0998 123.787 14.7869 123.503 14.5708C123.219 14.3548 122.866 14.243 122.451 14.243C121.906 14.243 121.446 14.4219 121.054 14.7795C120.662 15.137 120.394 15.6362 120.248 16.2694C120.171 16.5972 120.133 17.3124 120.133 18.4149V22.6539H117.453V12.0826V12.0901Z" fill="white"/>
<path d="M136.877 12.0905H139.556V22.6617H136.877V21.5443C136.354 22.036 135.832 22.3935 135.303 22.6096C134.781 22.8256 134.205 22.9374 133.59 22.9374C132.208 22.9374 131.018 22.4084 130.013 21.3506C129.007 20.2927 128.5 18.9741 128.5 17.4022C128.5 15.8303 128.984 14.4297 129.959 13.3867C130.934 12.3438 132.116 11.8223 133.506 11.8223C134.143 11.8223 134.75 11.9415 135.31 12.1799C135.871 12.4183 136.393 12.7758 136.869 13.2601V12.0979L136.877 12.0905ZM134.059 14.2658C133.23 14.2658 132.546 14.5563 131.993 15.1374C131.448 15.7185 131.172 16.4635 131.172 17.3649C131.172 18.2663 131.448 19.0262 132.009 19.6222C132.569 20.2182 133.253 20.5087 134.066 20.5087C134.88 20.5087 135.602 20.2182 136.163 19.6371C136.715 19.056 136.992 18.2961 136.992 17.3574C136.992 16.4188 136.715 15.6961 136.163 15.1225C135.61 14.5563 134.911 14.2658 134.059 14.2658Z" fill="white"/>
<path d="M149.658 12.0908H152.33V21.1423C152.33 22.9303 151.969 24.2414 151.24 25.0833C150.265 26.2231 148.798 26.7967 146.833 26.7967C145.788 26.7967 144.905 26.67 144.191 26.4093C143.477 26.1486 142.879 25.7686 142.387 25.2695C141.896 24.7704 141.535 24.1595 141.297 23.4369H144.253C144.514 23.7348 144.852 23.9583 145.266 24.1148C145.681 24.2638 146.165 24.3457 146.725 24.3457C147.447 24.3457 148.023 24.234 148.46 24.0179C148.898 23.8019 149.205 23.5114 149.389 23.1612C149.574 22.8111 149.658 22.2077 149.658 21.3584C149.19 21.8277 148.691 22.1629 148.176 22.3641C147.662 22.5652 147.071 22.6695 146.418 22.6695C144.982 22.6695 143.777 22.1555 142.786 21.1348C141.796 20.1142 141.305 18.818 141.305 17.2461C141.305 15.5699 141.827 14.2215 142.871 13.2083C143.823 12.292 144.952 11.8301 146.264 11.8301C146.879 11.8301 147.462 11.9418 148.007 12.1653C148.553 12.3888 149.105 12.7538 149.65 13.2679V12.1057L149.658 12.0908ZM146.879 14.296C146.034 14.296 145.335 14.579 144.79 15.1378C144.245 15.6965 143.969 16.4043 143.969 17.2535C143.969 18.1028 144.253 18.8552 144.813 19.4214C145.374 19.9876 146.08 20.2632 146.932 20.2632C147.785 20.2632 148.445 19.9876 148.99 19.4363C149.528 18.885 149.804 18.1624 149.804 17.2684C149.804 16.3744 149.535 15.6742 148.99 15.1229C148.445 14.5716 147.746 14.296 146.894 14.296H146.879Z" fill="white"/>
<path d="M165.226 18.1397H156.619C156.742 18.8921 157.072 19.4881 157.617 19.9351C158.162 20.3821 158.845 20.5981 159.682 20.5981C160.68 20.5981 161.54 20.2554 162.262 19.5626L164.519 20.613C163.959 21.4027 163.283 21.9838 162.5 22.3637C161.717 22.7437 160.78 22.9299 159.705 22.9299C158.031 22.9299 156.665 22.4084 155.613 21.358C154.561 20.3151 154.031 19.0039 154.031 17.432C154.031 15.8601 154.553 14.4818 155.605 13.4165C156.657 12.3512 157.97 11.8223 159.552 11.8223C161.233 11.8223 162.6 12.3512 163.652 13.4165C164.704 14.4818 165.233 15.8898 165.233 17.6405V18.1472L165.226 18.1397ZM162.554 16.0537C162.377 15.4652 162.032 14.9884 161.51 14.6159C160.987 14.2434 160.381 14.0647 159.698 14.0647C158.953 14.0647 158.292 14.2733 157.732 14.683C157.379 14.9437 157.049 15.3982 156.749 16.0537H162.561H162.554Z" fill="white"/>
<path d="M166.265 12.0905H168.561V13.424C168.807 12.9025 169.137 12.5002 169.552 12.232C169.966 11.9564 170.412 11.8223 170.903 11.8223C171.248 11.8223 171.609 11.9117 171.993 12.0979L171.156 14.3775C170.842 14.2211 170.58 14.1466 170.381 14.1466C169.966 14.1466 169.621 14.3999 169.337 14.9065C169.053 15.4131 168.907 16.4039 168.907 17.8789V18.393L168.914 22.6691H166.258V12.0979L166.265 12.0905Z" fill="white"/>
<path d="M2.69495 17.4844H0C0.721722 25.1651 7.04832 31.2963 14.9642 32.004V29.3891C8.53015 28.7037 3.40132 23.7347 2.70263 17.4918L2.69495 17.4844Z" fill="#628CF5"/>
<path d="M17.9999 0.0113633V2.62624C24.4339 3.31162 29.5628 8.28061 30.2615 14.5235H32.9564C32.2347 6.8428 25.9081 0.711636 17.9922 0.00390625L17.9999 0.0113633Z" fill="#628CF5"/>
<path d="M20.4107 17.3916H16.9096V18.8666H20.4107V21.109L12.8019 23.7537V8.25817L20.4107 10.9028V14.5309H27.7815C27.0367 9.11488 22.2611 4.93555 16.4796 4.93555C10.1761 4.93555 5.07031 9.88964 5.07031 16.0059C5.07031 22.1222 10.1761 27.0763 16.4796 27.0763C22.2995 27.0763 27.0905 22.8523 27.7969 17.3916H20.4184H20.4107Z" fill="#628CF5"/>
</svg>
