<svg width="210" height="28" viewBox="0 0 210 28" fill="none" xmlns="http://www.w3.org/2000/svg">
<path d="M206.346 23.2069H198.75C196.734 23.2069 195.096 21.5683 195.096 19.553V11.9566C195.096 9.94133 196.734 8.30273 198.75 8.30273H206.346C208.361 8.30273 210 9.94133 210 11.9566V19.553C210 21.5683 208.361 23.2069 206.346 23.2069ZM198.75 9.25675C197.262 9.25675 196.052 10.4665 196.052 11.9538V19.5502C196.052 21.0376 197.262 22.2473 198.75 22.2473H206.346C207.833 22.2473 209.043 21.0376 209.043 19.5502V11.9538C209.043 10.4665 207.833 9.25675 206.346 9.25675H198.75Z" fill="#628CF5"/>
<path d="M200.956 16.9516V20.4625H199.773V11.4941H203.081C204.062 11.4941 204.832 11.7443 205.388 12.2447C205.943 12.7451 206.223 13.4077 206.223 14.2352C206.223 15.1068 205.951 15.7776 205.407 16.2477C204.862 16.7179 204.084 16.9543 203.07 16.9543H200.958L200.956 16.9516ZM200.956 15.9838H203.081C203.713 15.9838 204.197 15.8353 204.535 15.5357C204.871 15.2387 205.041 14.8071 205.041 14.2435C205.041 13.7101 204.873 13.2812 204.535 12.9595C204.197 12.6379 203.735 12.4729 203.15 12.4592H200.956V15.9838Z" fill="#628CF5"/>
<path fill-rule="evenodd" clip-rule="evenodd" d="M8.61328 11.7348V0.882812L21.2225 3.01065C21.923 3.22343 23.324 4.07456 23.324 5.77683V11.522C26.1961 12.0894 31.9403 13.9052 31.9403 16.6288C31.8703 17.8346 30.3432 20.1184 24.7951 19.6078C27.7372 18.9694 32.5287 17.2246 28.1576 15.3521C26.4763 14.7137 20.2138 13.0966 8.61328 11.7348ZM13.6753 4.15731C13.3736 4.10941 13.091 4.31533 13.0443 4.61725C12.9975 4.91917 13.2043 5.20276 13.506 5.25066L17.7921 5.93105C18.0939 5.97895 18.3764 5.77303 18.4231 5.47111C18.4699 5.16919 18.2632 4.8856 17.9614 4.8377L13.6753 4.15731Z" fill="#628CF5"/>
<path fill-rule="evenodd" clip-rule="evenodd" d="M23.3262 16.2672V27.1191L10.717 24.9913C10.0164 24.7785 8.61543 23.9274 8.61543 22.2251V16.48C5.74333 15.9125 -0.000867844 14.0968 -0.000867844 11.3732C0.0691833 10.1674 1.5963 7.88352 7.14435 8.3942C4.2022 9.03255 -0.589296 10.7774 3.7819 12.6499C5.46312 13.2882 11.7257 14.9054 23.3262 16.2672ZM15.9224 23.7903C16.5262 23.8862 17.0915 23.4741 17.185 22.87L17.189 22.8439C17.2826 22.2398 16.869 21.6723 16.2652 21.5765C15.6614 21.4806 15.0961 21.8927 15.0025 22.4968L14.9985 22.5229C14.905 23.127 15.3186 23.6945 15.9224 23.7903Z" fill="white"/>
<path d="M39.6819 7.79297H42.3087L45.5629 17.6155L48.8571 7.79297H51.4439L53.8169 21.868H51.23L49.7213 12.9666L46.7209 21.868H44.3679L41.4074 12.9666L39.8588 21.868H37.252L39.6819 7.79297Z" fill="white"/>
<path d="M55.6562 15.4805H60.5191V17.8734H55.6562V15.4805Z" fill="white"/>
<path d="M64.4408 17.8125C65.0882 19.0275 65.8326 19.6549 66.7738 19.6549C67.715 19.6549 68.4023 19.0674 68.4023 18.3401C68.4023 17.8296 68.0687 17.2421 67.5011 16.7715C64.5806 14.3215 62.855 12.9868 62.855 10.9874C62.855 8.98814 64.6005 7.43945 66.7168 7.43945C68.5022 7.43945 69.6772 8.40061 70.7952 9.6926L68.7959 11.458C68.1285 10.5169 67.444 10.0063 66.6797 10.0063C65.9752 10.0063 65.4847 10.417 65.4847 10.9874C65.4847 11.5579 65.8954 11.8887 66.3089 12.2424C68.9357 14.5554 71.0348 15.6535 71.0348 18.2203C71.0348 20.5733 69.2694 22.219 66.7225 22.219C64.6633 22.219 63.2315 21.2179 62.1934 19.1615L64.4465 17.8096L64.4408 17.8125Z" fill="white"/>
<path d="M82.6688 19.8511C81.5508 21.4397 80.082 22.1442 77.8859 22.1442C74.5718 22.1442 72.4355 19.7142 72.4355 16.6539C72.4355 13.8104 74.4948 11.1836 77.846 11.1836C81.1972 11.1836 83.3733 13.5366 83.3733 16.8307C83.3733 17.0646 83.3533 17.1844 83.3533 17.4183H74.9625C75.2163 18.9669 76.3942 19.8283 77.883 19.8283C79.001 19.8283 79.7454 19.5145 80.4699 18.8101L82.666 19.8482L82.6688 19.8511ZM80.7465 15.359C80.3929 14.1441 79.2748 13.3997 77.883 13.3997C76.5882 13.3997 75.5899 14.0471 75.0794 15.359H80.7437H80.7465Z" fill="white"/>
<path d="M95.3306 19.968C94.2126 21.4197 92.644 22.1442 90.6047 22.1442C87.0567 22.1442 84.7637 19.7341 84.7637 16.6938C84.7637 13.6535 87.1936 11.1836 90.6447 11.1836C92.6839 11.1836 94.4094 12.0278 95.4476 13.5565L93.2714 14.7516C92.527 13.9672 91.7998 13.5765 90.6646 13.5765C88.6653 13.5765 87.3904 14.9284 87.3904 16.7337C87.3904 18.5391 88.6254 19.7541 90.5477 19.7541C91.7056 19.7541 92.6269 19.3634 93.2714 18.5591L95.3306 19.9709V19.968Z" fill="white"/>
<path d="M97.2125 11.459H99.8193V16.8894C99.8193 18.7518 100.407 19.7329 101.779 19.7329C103.15 19.7329 103.738 18.7717 103.738 17.0091V11.4618H106.345V16.2647C106.345 18.1871 106.228 19.5988 105.13 20.8138C104.306 21.735 103.227 22.1286 101.779 22.1286C99.2688 22.1286 97.7201 20.8538 97.3094 18.4238C97.1725 17.5796 97.2125 17.0919 97.2125 16.2277V11.4647V11.459Z" fill="white"/>
<path d="M110.008 7.79297H112.635L115.889 17.6155L119.183 7.79297H121.77L124.143 21.868H121.556L120.047 12.9666L117.047 21.868H114.694L111.734 12.9666L110.185 21.868H107.578L110.008 7.79297Z" fill="white"/>
<path d="M133.311 20.7723C132.39 21.6736 131.408 22.1442 130.096 22.1442C127.45 22.1442 125.137 19.871 125.137 16.6739C125.137 13.4767 127.333 11.1836 130.037 11.1836C131.292 11.1836 132.37 11.6542 133.311 12.5954V11.4574H135.918V21.8675H133.311V20.7695V20.7723ZM127.763 16.6539C127.763 18.4393 128.939 19.7513 130.567 19.7513C132.196 19.7513 133.431 18.5363 133.431 16.6339C133.431 14.7316 132.216 13.5765 130.567 13.5765C128.919 13.5765 127.763 14.9483 127.763 16.6539Z" fill="white"/>
<path d="M140.748 12.5184C141.749 11.6742 142.671 11.1836 143.826 11.1836C145.768 11.1836 147.394 12.5184 147.394 14.7516V21.8675H144.787V16.9477C144.787 14.8885 144.61 13.5765 143.021 13.5765C142.297 13.5765 141.67 13.9302 141.256 14.5776C140.726 15.4218 140.745 16.363 140.745 17.4411V21.8704H138.139V11.4602H140.745V12.5184H140.748Z" fill="white"/>
<path d="M157.213 20.7723C156.292 21.6736 155.311 22.1442 153.999 22.1442C151.352 22.1442 149.039 19.871 149.039 16.6739C149.039 13.4767 151.235 11.1836 153.939 11.1836C155.194 11.1836 156.272 11.6542 157.213 12.5954V11.4574H159.82V21.8675H157.213V20.7695V20.7723ZM151.666 16.6539C151.666 18.4393 152.841 19.7513 154.469 19.7513C156.098 19.7513 157.333 18.5363 157.333 16.6339C157.333 14.7316 156.118 13.5765 154.469 13.5765C152.821 13.5765 151.666 14.9483 151.666 16.6539Z" fill="white"/>
<path d="M172.355 20.3787C172.355 22.398 171.964 23.7499 170.766 24.7709C169.825 25.5552 168.57 25.926 166.981 25.926C164.118 25.926 162.295 24.808 161.591 22.6319H164.471C165.002 23.2593 165.786 23.5331 166.881 23.5331C167.843 23.5331 168.627 23.2793 169.097 22.8486C169.725 22.2611 169.745 21.5538 169.745 20.5755C168.884 21.4197 167.942 21.8704 166.588 21.8704C163.784 21.8704 161.588 19.6343 161.588 16.517C161.588 13.3997 163.804 11.1836 166.451 11.1836C167.746 11.1836 168.764 11.6742 169.745 12.5954V11.4574H172.352V20.3787H172.355ZM164.22 16.537C164.22 18.2625 165.455 19.4775 167.084 19.4775C168.712 19.4775 169.887 18.3195 169.887 16.5569C169.887 14.7943 168.769 13.5765 167.044 13.5765C165.318 13.5765 164.22 14.9284 164.22 16.537Z" fill="white"/>
<path d="M184.141 19.8511C183.023 21.4397 181.555 22.1442 179.359 22.1442C176.044 22.1442 173.908 19.7142 173.908 16.6539C173.908 13.8104 175.967 11.1836 179.319 11.1836C182.67 11.1836 184.846 13.5366 184.846 16.8307C184.846 17.0646 184.826 17.1844 184.826 17.4183H176.435C176.689 18.9669 177.867 19.8283 179.356 19.8283C180.474 19.8283 181.218 19.5145 181.943 18.8101L184.139 19.8482L184.141 19.8511ZM182.219 15.359C181.866 14.1441 180.747 13.3997 179.356 13.3997C178.061 13.3997 177.063 14.0471 176.552 15.359H182.216H182.219Z" fill="white"/>
<path d="M188.571 12.7722C189.062 11.6941 189.903 11.1836 190.768 11.1836C191.315 11.1836 191.649 11.3405 191.906 11.4574L191.101 13.6934C190.904 13.5965 190.611 13.4767 190.337 13.4767C189.593 13.4767 189.005 14.3409 188.945 15.8696C188.925 16.4371 188.925 17.0846 188.925 17.655V21.8704H186.318V11.4602H188.571V12.7751V12.7722Z" fill="white"/>
</svg>
