<svg width="210" height="28" viewBox="0 0 210 28" fill="none" xmlns="http://www.w3.org/2000/svg">
<path d="M206.351 23.2057H198.754C196.738 23.2057 195.1 21.567 195.1 19.5517V11.9548C195.1 9.93947 196.738 8.30078 198.754 8.30078H206.351C208.366 8.30078 210.005 9.93947 210.005 11.9548V19.5517C210.005 21.567 208.366 23.2057 206.351 23.2057ZM198.754 9.25485C197.266 9.25485 196.056 10.4646 196.056 11.9521V19.5489C196.056 21.0364 197.266 22.2462 198.754 22.2462H206.351C207.838 22.2462 209.048 21.0364 209.048 19.5489V11.9521C209.048 10.4646 207.838 9.25485 206.351 9.25485H198.754Z" fill="#FF9C00"/>
<path d="M205.9 19.0701C205.595 19.5045 205.172 19.8317 204.627 20.0461C204.083 20.2606 203.451 20.3706 202.728 20.3706C202.004 20.3706 201.347 20.2001 200.781 19.8564C200.215 19.5127 199.775 19.0261 199.467 18.3937C199.156 17.7613 198.997 17.0272 198.988 16.1941V15.4105C198.988 14.0605 199.304 13.0129 199.934 12.2678C200.564 11.5255 201.452 11.1543 202.593 11.1543C203.53 11.1543 204.284 11.3935 204.853 11.8719C205.425 12.3503 205.774 13.0294 205.9 13.9093H204.718C204.496 12.7188 203.789 12.1221 202.598 12.1221C201.807 12.1221 201.204 12.3998 200.797 12.958C200.388 13.5161 200.182 14.3217 200.179 15.3775V16.1116C200.179 17.1179 200.41 17.918 200.869 18.5119C201.328 19.1058 201.952 19.4027 202.736 19.4027C203.178 19.4027 203.566 19.3533 203.899 19.2543C204.232 19.1553 204.506 18.9903 204.724 18.7566V16.7467H202.648V15.7789H205.9V19.0673V19.0701Z" fill="#FF9C00"/>
<path fill-rule="evenodd" clip-rule="evenodd" d="M8.61523 11.7354V0.882812L21.2251 3.01076C21.9257 3.22356 23.3268 4.07474 23.3268 5.7771V11.5226C26.1991 12.09 31.9436 13.9059 31.9436 16.6297C31.8735 17.8355 30.3463 20.1195 24.798 19.6088C27.7403 18.9704 32.532 17.2255 28.1606 15.3529C26.4793 14.7145 20.2164 13.0973 8.61523 11.7354ZM13.6746 4.1583C13.3729 4.1104 13.0904 4.31634 13.0436 4.61827C12.9968 4.92021 13.2036 5.20381 13.5053 5.25171L17.7917 5.93215C18.0934 5.98005 18.376 5.77411 18.4227 5.47218C18.4695 5.17024 18.2628 4.88664 17.961 4.83874L13.6746 4.1583Z" fill="#628CF5"/>
<path fill-rule="evenodd" clip-rule="evenodd" d="M23.3281 16.2685V27.1211L10.7182 24.9931C10.0177 24.7803 8.61656 23.9292 8.61656 22.2268V16.4813C5.74431 15.9139 -0.000205994 14.098 -0.000205994 11.3742C0.069849 10.1684 1.59705 7.88441 7.14541 8.39512C4.2031 9.0335 -0.588669 10.7784 3.78277 12.651C5.46409 13.2894 11.727 14.9066 23.3281 16.2685ZM15.9217 23.7921C16.5256 23.8879 17.0909 23.4758 17.1844 22.8717L17.1885 22.8456C17.282 22.2414 16.8684 21.6739 16.2646 21.5781C15.6607 21.4822 15.0954 21.8943 15.0019 22.4985L14.9978 22.5246C14.9043 23.1287 15.3179 23.6962 15.9217 23.7921Z" fill="white"/>
<path d="M39.684 7.79297H42.3109L45.5653 17.6161L48.8597 7.79297H51.4467L53.8197 21.8688H51.2327L49.7239 12.9669L46.7234 21.8688H44.3703L41.4096 12.9669L39.8609 21.8688H37.2539L39.684 7.79297Z" fill="white"/>
<path d="M55.6543 15.4805H60.5174V17.8735H55.6543V15.4805Z" fill="white"/>
<path d="M64.4468 17.8131C65.0942 19.0281 65.8387 19.6556 66.7799 19.6556C67.7212 19.6556 68.4086 19.068 68.4086 18.3407C68.4086 17.8302 68.0748 17.2426 67.5072 16.772C64.5865 14.3219 62.8609 12.9871 62.8609 10.9876C62.8609 8.98822 64.6065 7.43945 66.7229 7.43945C68.5084 7.43945 69.6835 8.40066 70.8016 9.69272L68.8022 11.4583C68.1347 10.517 67.4502 10.0065 66.6858 10.0065C65.9813 10.0065 65.4907 10.4172 65.4907 10.9876C65.4907 11.5581 65.9014 11.889 66.315 12.2426C68.9419 14.5558 71.0412 15.6539 71.0412 18.2209C71.0412 20.574 69.2756 22.2198 66.7286 22.2198C64.6693 22.2198 63.2374 21.2186 62.1992 19.1622L64.4525 17.8102L64.4468 17.8131Z" fill="white"/>
<path d="M82.6733 19.8516C81.5552 21.4403 80.0863 22.1448 77.8901 22.1448C74.5758 22.1448 72.4395 19.7146 72.4395 16.6542C72.4395 13.8105 74.4988 11.1836 77.8502 11.1836C81.2015 11.1836 83.3778 13.5367 83.3778 16.831C83.3778 17.0649 83.3578 17.1847 83.3578 17.4186H74.9665C75.2204 18.9674 76.3984 19.8287 77.8872 19.8287C79.0053 19.8287 79.7497 19.515 80.4742 18.8105L82.6704 19.8487L82.6733 19.8516ZM80.7509 15.3593C80.3972 14.1442 79.2791 13.3998 77.8872 13.3998C76.5923 13.3998 75.594 14.0472 75.0835 15.3593H80.748H80.7509Z" fill="white"/>
<path d="M95.3332 19.9685C94.2151 21.4203 92.6464 22.1448 90.607 22.1448C87.0588 22.1448 84.7656 19.7346 84.7656 16.6941C84.7656 13.6536 87.1957 11.1836 90.6469 11.1836C92.6863 11.1836 94.4119 12.0279 95.4501 13.5567L93.2739 14.7517C92.5294 13.9674 91.8021 13.5766 90.6669 13.5766C88.6675 13.5766 87.3925 14.9286 87.3925 16.7341C87.3925 18.5395 88.6276 19.7546 90.55 19.7546C91.708 19.7546 92.6293 19.3638 93.2739 18.5595L95.3332 19.9714V19.9685Z" fill="white"/>
<path d="M97.2222 11.4609H99.8292V16.8916C99.8292 18.7541 100.417 19.7353 101.789 19.7353C103.161 19.7353 103.748 18.7741 103.748 17.0114V11.4638H106.355V16.267C106.355 18.1894 106.238 19.6012 105.14 20.8163C104.316 21.7376 103.238 22.1312 101.789 22.1312C99.2787 22.1312 97.7299 20.8562 97.3192 18.4261C97.1823 17.5818 97.2222 17.0941 97.2222 16.2299V11.4666V11.4609Z" fill="white"/>
<path d="M110.012 7.79297H112.639L115.893 17.6161L119.188 7.79297H121.775L124.148 21.8688H121.561L120.052 12.9669L117.051 21.8688H114.698L111.738 12.9669L110.189 21.8688H107.582L110.012 7.79297Z" fill="white"/>
<path d="M133.315 20.7728C132.394 21.6741 131.413 22.1448 130.101 22.1448C127.454 22.1448 125.141 19.8715 125.141 16.6742C125.141 13.4768 127.337 11.1836 130.041 11.1836C131.296 11.1836 132.374 11.6542 133.315 12.5955V11.4574H135.922V21.8681H133.315V20.77V20.7728ZM127.768 16.6542C127.768 18.4397 128.943 19.7517 130.571 19.7517C132.2 19.7517 133.435 18.5367 133.435 16.6342C133.435 14.7318 132.22 13.5766 130.571 13.5766C128.923 13.5766 127.768 14.9486 127.768 16.6542Z" fill="white"/>
<path d="M140.756 12.5184C141.757 11.6742 142.679 11.1836 143.834 11.1836C145.776 11.1836 147.402 12.5184 147.402 14.7517V21.8681H144.795V16.948C144.795 14.8887 144.618 13.5766 143.03 13.5766C142.305 13.5766 141.678 13.9303 141.264 14.5778C140.733 15.422 140.753 16.3633 140.753 17.4414V21.8709H138.146V11.4603H140.753V12.5184H140.756Z" fill="white"/>
<path d="M157.216 20.7728C156.294 21.6741 155.313 22.1448 154.001 22.1448C151.354 22.1448 149.041 19.8715 149.041 16.6742C149.041 13.4768 151.237 11.1836 153.941 11.1836C155.196 11.1836 156.274 11.6542 157.216 12.5955V11.4574H159.822V21.8681H157.216V20.77V20.7728ZM151.668 16.6542C151.668 18.4397 152.843 19.7517 154.472 19.7517C156.1 19.7517 157.335 18.5367 157.335 16.6342C157.335 14.7318 156.12 13.5766 154.472 13.5766C152.823 13.5766 151.668 14.9486 151.668 16.6542Z" fill="white"/>
<path d="M172.363 20.3792C172.363 22.3986 171.972 23.7506 170.774 24.7717C169.833 25.556 168.578 25.9268 166.989 25.9268C164.126 25.9268 162.303 24.8088 161.599 22.6325H164.479C165.01 23.26 165.794 23.5338 166.889 23.5338C167.851 23.5338 168.635 23.28 169.106 22.8493C169.733 22.2617 169.753 21.5543 169.753 20.576C168.892 21.4203 167.951 21.8709 166.596 21.8709C163.792 21.8709 161.596 19.6348 161.596 16.5173C161.596 13.3998 163.812 11.1836 166.459 11.1836C167.754 11.1836 168.772 11.6742 169.753 12.5955V11.4574H172.36V20.3792H172.363ZM164.228 16.5373C164.228 18.2629 165.463 19.4779 167.092 19.4779C168.721 19.4779 169.896 18.3199 169.896 16.5572C169.896 14.7945 168.778 13.5766 167.052 13.5766C165.326 13.5766 164.228 14.9286 164.228 16.5373Z" fill="white"/>
<path d="M184.152 19.8516C183.034 21.4403 181.565 22.1448 179.369 22.1448C176.054 22.1448 173.918 19.7146 173.918 16.6542C173.918 13.8105 175.977 11.1836 179.329 11.1836C182.68 11.1836 184.856 13.5367 184.856 16.831C184.856 17.0649 184.836 17.1847 184.836 17.4186H176.445C176.699 18.9674 177.877 19.8287 179.366 19.8287C180.484 19.8287 181.228 19.515 181.953 18.8105L184.149 19.8487L184.152 19.8516ZM182.229 15.3593C181.876 14.1442 180.758 13.3998 179.366 13.3998C178.071 13.3998 177.073 14.0472 176.562 15.3593H182.227H182.229Z" fill="white"/>
<path d="M188.583 12.7723C189.074 11.6941 189.915 11.1836 190.78 11.1836C191.327 11.1836 191.661 11.3405 191.918 11.4574L191.113 13.6936C190.916 13.5966 190.623 13.4768 190.349 13.4768C189.604 13.4768 189.017 14.341 188.957 15.8698C188.937 16.4374 188.937 17.0849 188.937 17.6553V21.8709H186.33V11.4603H188.583V12.7751V12.7723Z" fill="white"/>
</svg>
