<svg width="98" height="16" viewBox="0 0 98 16" fill="none" xmlns="http://www.w3.org/2000/svg">
<path d="M4.87133 7.99606C4.87133 7.99606 1.21326 7.57215 1.24 6.4022C1.2583 5.60737 2.43637 5.09979 4.05779 4.91293C0.97117 4.69958 0 5.65757 0 6.59185C0 8.49667 4.84177 9.34728 4.86992 9.35286V12.7023C4.86992 13.426 5.40194 14.041 6.12258 14.1539L13.2149 15.2597V9.29708L4.87133 7.99606ZM9.04313 13.4776C8.69829 13.4776 8.41819 13.2001 8.41819 12.8585C8.41819 12.5169 8.69829 12.2394 9.04313 12.2394C9.38796 12.2394 9.66805 12.5169 9.66805 12.8585C9.66805 13.2001 9.38796 13.4776 9.04313 13.4776Z" fill="white"/>
<path d="M13.2142 6.63987V3.2918C13.2142 2.56808 12.6821 1.95312 11.9615 1.84017L4.86914 0.734375V6.69704L13.2142 7.99806C13.2142 7.99806 16.8722 8.42058 16.8455 9.59052C16.8272 10.3854 15.6491 10.8929 14.0277 11.0798C17.1143 11.2931 18.0855 10.3352 18.0855 9.40088C18.0855 7.49048 13.2156 6.63987 13.2156 6.63987H13.2142ZM10.0543 3.48283L7.5687 3.08123C7.41388 3.05613 7.30128 2.92366 7.30128 2.76888C7.30128 2.57365 7.47721 2.42584 7.67145 2.45652L10.1571 2.85812C10.3119 2.88322 10.4245 3.01569 10.4245 3.17048C10.4245 3.3657 10.2486 3.51351 10.0543 3.48283Z" fill="white"/>
<path d="M22.0586 4.76562H23.3549L24.9608 9.56811L26.5864 4.76562H27.863L29.0341 11.6472H27.7575L27.0129 7.29516L25.5322 11.6472H24.3711L22.9101 7.29516L22.1458 11.6472H20.8594L22.0586 4.76562Z" fill="white"/>
<path d="M29.9404 8.52344H32.3402V9.69338H29.9404V8.52344Z" fill="white"/>
<path d="M34.28 9.66536C34.5995 10.2594 34.9669 10.5662 35.4313 10.5662C35.8958 10.5662 36.235 10.2789 36.235 9.92334C36.235 9.67373 36.0703 9.38647 35.7902 9.15639C34.349 7.95856 33.4974 7.30595 33.4974 6.32845C33.4974 5.35094 34.3588 4.59375 35.4032 4.59375C36.2843 4.59375 36.8642 5.06368 37.4159 5.69537L36.4292 6.55853C36.0999 6.09836 35.7621 5.84875 35.3849 5.84875C35.0372 5.84875 34.7951 6.04956 34.7951 6.32845C34.7951 6.60734 34.9978 6.76909 35.2019 6.942C36.4982 8.0729 37.5341 8.60977 37.5341 9.86477C37.5341 11.0152 36.6629 11.8198 35.406 11.8198C34.3898 11.8198 33.6832 11.3303 33.1709 10.3249L34.2828 9.66397L34.28 9.66536Z" fill="white"/>
<path d="M43.2718 10.6596C42.72 11.4363 41.9952 11.7807 40.9114 11.7807C39.2759 11.7807 38.2217 10.5927 38.2217 9.09643C38.2217 7.70616 39.2379 6.42188 40.8917 6.42188C42.5455 6.42188 43.6194 7.5723 43.6194 9.18289C43.6194 9.29723 43.6096 9.3558 43.6096 9.47014H39.4687C39.594 10.2273 40.1753 10.6485 40.91 10.6485C41.4617 10.6485 41.8291 10.4951 42.1866 10.1506L43.2703 10.6582L43.2718 10.6596ZM42.3245 8.46474C42.15 7.87071 41.5982 7.50676 40.9114 7.50676C40.2724 7.50676 39.7798 7.8233 39.5278 8.46474H42.3231H42.3245Z" fill="white"/>
<path d="M49.5194 10.7168C48.9677 11.4266 48.1936 11.7807 47.1872 11.7807C45.4363 11.7807 44.3047 10.6024 44.3047 9.11595C44.3047 7.62947 45.5039 6.42188 47.2069 6.42188C48.2133 6.42188 49.0648 6.83463 49.5772 7.58206L48.5032 8.16633C48.1359 7.78286 47.777 7.59182 47.2168 7.59182C46.2301 7.59182 45.601 8.25279 45.601 9.13547C45.601 10.0182 46.2104 10.6122 47.1591 10.6122C47.7305 10.6122 48.1851 10.4212 48.5032 10.0279L49.5194 10.7182V10.7168Z" fill="white"/>
<path d="M50.4519 6.5625H51.7383V9.21753C51.7383 10.1281 52.0283 10.6078 52.7053 10.6078C53.3823 10.6078 53.6722 10.1379 53.6722 9.2761V6.56389H54.9587V8.91215C54.9587 9.85201 54.901 10.5423 54.3591 11.1363C53.9523 11.5867 53.4203 11.7791 52.7053 11.7791C51.4667 11.7791 50.7024 11.1558 50.4997 9.96775C50.4322 9.55499 50.4519 9.31654 50.4519 8.89402V6.56529V6.5625Z" fill="white"/>
<path d="M56.7636 4.76562H58.0599L59.6659 9.56811L61.2915 4.76562H62.5681L63.7392 11.6472H62.4626L61.718 7.29516L60.2373 11.6472H59.0761L57.6152 7.29516L56.8509 11.6472H55.5645L56.7636 4.76562Z" fill="white"/>
<path d="M68.2634 11.11C67.8087 11.5507 67.3246 11.7807 66.6771 11.7807C65.371 11.7807 64.2295 10.6694 64.2295 9.10619C64.2295 7.54301 65.3132 6.42188 66.6475 6.42188C67.2668 6.42188 67.7989 6.65196 68.2634 7.11213V6.55574H69.5498V11.6455H68.2634V11.1086V11.11ZM65.5244 9.09782C65.5244 9.97075 66.1043 10.6122 66.9079 10.6122C67.7116 10.6122 68.3211 10.0182 68.3211 9.08806C68.3211 8.15796 67.7215 7.59321 66.9079 7.59321C66.0944 7.59321 65.5244 8.26394 65.5244 9.09782Z" fill="white"/>
<path d="M71.9343 7.07448C72.4284 6.66172 72.883 6.42188 73.453 6.42188C74.4115 6.42188 75.2138 7.07448 75.2138 8.16633V11.6455H73.9274V9.24006C73.9274 8.23327 73.8401 7.59182 73.0561 7.59182C72.6986 7.59182 72.389 7.76473 72.1849 8.08127C71.9231 8.49403 71.9329 8.9542 71.9329 9.4813V11.6469H70.6465V6.55714H71.9329V7.07448H71.9343Z" fill="white"/>
<path d="M80.0573 11.11C79.6027 11.5507 79.1185 11.7807 78.4711 11.7807C77.1649 11.7807 76.0234 10.6694 76.0234 9.10619C76.0234 7.54301 77.1072 6.42188 78.4415 6.42188C79.0608 6.42188 79.5928 6.65196 80.0573 7.11213V6.55574H81.3438V11.6455H80.0573V11.1086V11.11ZM77.3183 9.09782C77.3183 9.97075 77.8982 10.6122 78.7019 10.6122C79.5056 10.6122 80.115 10.0182 80.115 9.08806C80.115 8.15796 79.5154 7.59321 78.7019 7.59321C77.8884 7.59321 77.3183 8.26394 77.3183 9.09782Z" fill="white"/>
<path d="M87.531 10.9254C87.531 11.9127 87.3382 12.5736 86.7471 13.0728C86.2826 13.4563 85.6633 13.6376 84.8793 13.6376C83.4662 13.6376 82.5668 13.091 82.2192 12.027H83.6408C83.9026 12.3338 84.2896 12.4677 84.8301 12.4677C85.3044 12.4677 85.6915 12.3435 85.9237 12.133C86.2334 11.8457 86.2432 11.4999 86.2432 11.0216C85.8181 11.4344 85.3537 11.6547 84.6851 11.6547C83.3015 11.6547 82.2178 10.5614 82.2178 9.03731C82.2178 7.51317 83.3114 6.42969 84.6175 6.42969C85.2566 6.42969 85.759 6.66953 86.2432 7.11994V6.56355H87.5296V10.9254H87.531ZM83.5155 9.04567C83.5155 9.88932 84.1249 10.4834 84.9286 10.4834C85.7323 10.4834 86.3122 9.91721 86.3122 9.05544C86.3122 8.19367 85.7604 7.59824 84.9089 7.59824C84.0574 7.59824 83.5155 8.25921 83.5155 9.04567Z" fill="white"/>
<path d="M93.3479 10.6596C92.7962 11.4363 92.0713 11.7807 90.9876 11.7807C89.3521 11.7807 88.2979 10.5927 88.2979 9.09643C88.2979 7.70616 89.3141 6.42188 90.9679 6.42188C92.6217 6.42188 93.6956 7.5723 93.6956 9.18289C93.6956 9.29723 93.6857 9.3558 93.6857 9.47014H89.5449C89.6702 10.2273 90.2514 10.6485 90.9862 10.6485C91.5379 10.6485 91.9052 10.4951 92.2627 10.1506L93.3465 10.6582L93.3479 10.6596ZM92.4007 8.46474C92.2262 7.87071 91.6744 7.50676 90.9876 7.50676C90.3486 7.50676 89.8559 7.8233 89.604 8.46474H92.3993H92.4007Z" fill="white"/>
<path d="M95.5348 7.2064C95.7768 6.67929 96.1921 6.42969 96.6185 6.42969C96.8888 6.42969 97.0534 6.50638 97.1801 6.56355L96.7832 7.6568C96.6861 7.60939 96.5411 7.55082 96.406 7.55082C96.0386 7.55082 95.7487 7.97334 95.7191 8.72077C95.7093 8.99826 95.7093 9.3148 95.7093 9.59369V11.6547H94.4229V6.56495H95.5348V7.20779V7.2064Z" fill="white"/>
</svg>
