<svg width="52" height="17" viewBox="0 0 52 17" fill="none" xmlns="http://www.w3.org/2000/svg">
<g clip-path="url(#clip0_8120_437)">
<path d="M30.9528 5.69769C30.321 5.38008 29.5793 5.2207 28.7274 5.2207C27.7471 5.2207 26.8654 5.40758 26.0823 5.78135C25.2992 6.15515 24.6549 6.69285 24.1469 7.39453C23.639 8.09507 23.2997 8.92744 23.1277 9.89053C23.0669 10.2001 23.0371 10.5189 23.0371 10.8456C23.0371 11.6115 23.2091 12.2845 23.553 12.8647C23.897 13.4448 24.3854 13.8943 25.0172 14.213C25.6489 14.5306 26.3907 14.6899 27.2426 14.6899C28.2229 14.6899 29.1046 14.5031 29.8877 14.1293C30.6708 13.7555 31.3151 13.2178 31.823 12.5161C32.3309 11.8156 32.6703 10.9832 32.8423 10.0201C32.9019 9.71054 32.9328 9.39179 32.9328 9.06505C32.9328 8.29915 32.7609 7.62616 32.4169 7.04599C32.0729 6.46583 31.5845 6.01639 30.9528 5.69769ZM30.7143 9.90317C30.5595 10.7802 30.1857 11.4831 29.5918 12.0128C28.998 12.5413 28.2848 12.8062 27.4501 12.8062C26.753 12.8062 26.205 12.6124 25.8048 12.226C25.4047 11.8397 25.2052 11.3099 25.2052 10.6392C25.2052 10.4156 25.2224 10.2047 25.2568 10.0075C25.4116 9.13037 25.7854 8.42755 26.3792 7.89788C26.9731 7.36931 27.6817 7.10447 28.5084 7.10447C29.2135 7.10447 29.7661 7.29824 30.1663 7.68459C30.5664 8.07213 30.7659 8.6007 30.7659 9.27141C30.7659 9.49497 30.7487 9.70593 30.7143 9.90317Z" fill="white"/>
<path d="M35.7058 14.1933C36.3341 14.5155 37.0736 14.6771 37.9243 14.6771C38.681 14.6771 39.369 14.5671 39.9881 14.3481C40.6072 14.1291 41.1839 13.7908 41.7171 13.3357L40.621 11.8521C40.285 12.1445 39.9044 12.3749 39.479 12.5423C39.0536 12.7097 38.634 12.7934 38.2213 12.7934C37.5161 12.7934 36.9521 12.5916 36.5313 12.1869C36.1094 11.7821 35.8995 11.2444 35.8995 10.5737C35.8995 9.95457 36.0497 9.37787 36.3513 8.84474C36.6517 8.3116 37.0564 7.88853 37.5643 7.57434C38.0722 7.2602 38.6225 7.10315 39.2153 7.10315C39.6453 7.10315 40.0259 7.16733 40.3573 7.29692C40.6886 7.42646 40.9833 7.63282 41.2413 7.91604L42.6343 6.6388C42.2387 6.18361 41.7618 5.83508 41.2023 5.59428C40.6428 5.35353 40.0282 5.23315 39.3575 5.23315C38.3164 5.23315 37.3705 5.47162 36.5187 5.94971C35.6668 6.42669 34.9938 7.08134 34.4996 7.91029C34.0055 8.74037 33.7578 9.66333 33.7578 10.678C33.7578 11.4955 33.9252 12.2052 34.2612 12.8071C34.5971 13.4091 35.0786 13.8711 35.7058 14.1944V14.1933Z" fill="white"/>
<path d="M47.4327 9.92978L51.9996 5.43994H49.1743L45.8194 8.80731L46.4137 5.43994H44.2591L42.6724 14.4712H44.8267L45.4848 10.7427L48.0773 14.4712H50.6969L47.4327 9.92978Z" fill="white"/>
<path d="M12.3951 10.5749C12.3799 10.6618 12.3597 10.7433 12.3421 10.8278L12.3416 10.8273C12.0829 12.051 11.5842 12.9886 10.84 13.6321C10.0448 14.3203 8.98009 14.6644 7.64734 14.6644C6.76134 14.6644 6.03092 14.4847 5.45071 14.1313C5.29265 14.0351 5.14391 13.9286 5.00894 13.8064C4.37667 13.2345 4.06055 12.4496 4.06055 11.4516C4.06055 11.2195 4.09049 10.9142 4.15087 10.5357L4.77234 7.03037L4.96378 5.94457L5.06449 5.44044H5.47032H7.19526L6.27929 10.601C6.24494 10.7988 6.22774 11.001 6.22774 11.2072C6.22774 11.7319 6.36518 12.1281 6.6406 12.3946C6.9032 12.6489 7.2802 12.7805 7.76909 12.7922C7.79317 12.7927 7.81621 12.7947 7.84075 12.7947C8.46023 12.7947 8.98497 12.5969 9.41498 12.2012C9.75663 11.8866 9.99911 11.4752 10.1454 10.9701C10.1832 10.8395 10.2161 10.705 10.2406 10.5622L11.1566 5.43994H13.2983L12.775 8.41411L12.3951 10.5749Z" fill="white"/>
<path d="M0.437248 15.9967C-0.947015 14.2669 1.06164 9.92168 4.96358 5.94409L4.77214 7.02993C2.01197 10.1519 0.613473 13.1938 1.56331 14.3812C2.09738 15.0483 3.28038 15.0125 4.79522 14.4146L5.14668 14.6291C5.61153 14.9129 6.1584 15.0974 6.77638 15.1858C3.90036 16.8189 1.42636 17.2327 0.437248 15.9967Z" fill="#628CF5"/>
<path d="M19.0243 7.24635H15.3079L16.3814 5.43994H19.3463C19.9226 5.43994 20.4321 5.54941 20.8754 5.76882C21.3186 5.98777 21.6603 6.29749 21.9013 6.69757C22.1423 7.0976 22.2626 7.56004 22.2626 8.08473C22.2626 8.91039 22.0387 9.60546 21.5915 10.1685C21.1444 10.732 20.5077 11.1252 19.682 11.3491L21.6819 14.4715H19.256L17.5011 11.543H16.0692L15.5533 14.4715H13.4116L14.2324 9.80087H18.5982C19.0282 9.80087 19.3895 9.67174 19.682 9.41356C19.9746 9.15584 20.1381 8.81615 20.1724 8.3945C20.1896 8.05089 20.0969 7.77356 19.8951 7.56245C19.6929 7.3519 19.4028 7.24635 19.0243 7.24635Z" fill="white"/>
<path d="M13.1893 8.55975C14.4033 6.75088 17.4305 2.33007 16.2121 0.807875C15.0644 -0.626458 10.92 1.18535 6.91303 4.85561H6.09033C10.6073 0.717062 15.437 -1.135 16.9219 0.720497C17.6818 1.66985 17.4182 3.40754 16.3825 5.43925L15.3044 7.24761C15.0769 7.39098 13.1893 8.55975 13.1893 8.55975Z" fill="#628CF5"/>
<path d="M9.54026 5.43994H7.77212L7.4624 7.18349L9.54026 5.43994Z" fill="white"/>
</g>
<defs>
<clipPath id="clip0_8120_437">
<rect width="52" height="16.8772" fill="white"/>
</clipPath>
</defs>
</svg>
