<svg width="114" height="37" viewBox="0 0 114 37" fill="none" xmlns="http://www.w3.org/2000/svg">
<path d="M67.8575 12.491C66.4725 11.7947 64.8463 11.4453 62.9787 11.4453C60.8296 11.4453 58.8967 11.855 57.1799 12.6744C55.4632 13.4939 54.0505 14.6727 52.937 16.211C51.8235 17.7468 51.0795 19.5716 50.7025 21.683C50.5693 22.3617 50.5039 23.0605 50.5039 23.7768C50.5039 25.4559 50.8809 26.9313 51.635 28.2032C52.3891 29.475 53.4598 30.4604 54.8448 31.1591C56.2298 31.8554 57.8561 32.2048 59.7236 32.2048C61.8727 32.2048 63.8056 31.7951 65.5224 30.9756C67.2392 30.1562 68.6518 28.9774 69.7653 27.4391C70.8788 25.9033 71.6228 24.0784 71.9998 21.9671C72.1305 21.2884 72.1984 20.5896 72.1984 19.8733C72.1984 18.1942 71.8214 16.7188 71.0673 15.4469C70.3132 14.175 69.2425 13.1897 67.8575 12.491ZM67.3347 21.7107C66.9953 23.6335 66.1759 25.1744 64.8739 26.3356C63.5719 27.4944 62.0085 28.075 60.1786 28.075C58.6503 28.075 57.4489 27.6502 56.5716 26.8031C55.6944 25.9561 55.257 24.7948 55.257 23.3244C55.257 22.8342 55.2947 22.3717 55.3702 21.9394C55.7095 20.0165 56.5289 18.4757 57.8309 17.3145C59.1329 16.1557 60.6863 15.5751 62.4986 15.5751C64.0444 15.5751 65.256 15.9999 66.1332 16.8469C67.0104 17.6965 67.4478 18.8553 67.4478 20.3257C67.4478 20.8158 67.4101 21.2783 67.3347 21.7107Z" fill="white"/>
<path d="M78.2783 31.1161C79.6558 31.8224 81.277 32.1768 83.1421 32.1768C84.801 32.1768 86.3092 31.9355 87.6665 31.4554C89.0238 30.9753 90.2881 30.2338 91.4569 29.236L89.054 25.9834C88.3175 26.6244 87.483 27.1296 86.5505 27.4966C85.6179 27.8636 84.698 28.047 83.7931 28.047C82.2472 28.047 81.0106 27.6047 80.0881 26.7174C79.1631 25.8301 78.7031 24.6512 78.7031 23.1808C78.7031 21.8235 79.0324 20.5592 79.6935 19.3904C80.352 18.2216 81.2393 17.2941 82.3528 16.6053C83.4663 15.9166 84.6728 15.5723 85.9723 15.5723C86.9149 15.5723 87.7494 15.713 88.4758 15.9971C89.2023 16.2811 89.8482 16.7335 90.4138 17.3544L93.4678 14.5543C92.6006 13.5564 91.5549 12.7923 90.3283 12.2644C89.1017 11.7366 87.7544 11.4727 86.284 11.4727C84.0017 11.4727 81.928 11.9955 80.0605 13.0436C78.1929 14.0893 76.7174 15.5245 75.6341 17.3418C74.5507 19.1616 74.0078 21.185 74.0078 23.4095C74.0078 25.2017 74.3748 26.7576 75.1113 28.0772C75.8477 29.3968 76.9034 30.4098 78.2783 31.1186V31.1161Z" fill="white"/>
<path d="M103.987 21.7689L113.999 11.9258H107.805L100.45 19.3081L101.753 11.9258H97.0295L93.5508 31.7251H98.2738L99.7165 23.551L105.4 31.7251H111.143L103.987 21.7689Z" fill="white"/>
<path d="M27.1742 23.1833C27.1409 23.3738 27.0967 23.5525 27.058 23.7376L27.0569 23.7365C26.4898 26.4193 25.3964 28.4747 23.765 29.8856C22.0216 31.3943 19.6875 32.1487 16.7657 32.1487C14.8233 32.1487 13.222 31.7548 11.95 30.98C11.6035 30.7691 11.2774 30.5356 10.9815 30.2676C9.59538 29.0139 8.90234 27.2931 8.90234 25.1053C8.90234 24.5963 8.96799 23.927 9.10035 23.0972L10.4628 15.4125L10.8825 13.0321L11.1033 11.9269H11.993H15.7746L13.7665 23.2404C13.6912 23.6741 13.6535 24.1174 13.6535 24.5694C13.6535 25.7198 13.9548 26.5883 14.5586 27.1726C15.1343 27.7301 15.9608 28.0185 17.0326 28.0443C17.0854 28.0454 17.1359 28.0497 17.1897 28.0497C18.5478 28.0497 19.6982 27.616 20.6409 26.7486C21.3899 26.0588 21.9215 25.157 22.2422 24.0496C22.3251 23.7634 22.3972 23.4685 22.451 23.1554L24.4591 11.9258H29.1543L28.0072 18.4461L27.1742 23.1833Z" fill="white"/>
<path d="M0.958581 35.0696C-2.07615 31.2773 2.32744 21.7513 10.8817 13.0312L10.462 15.4117C4.41086 22.256 1.34492 28.9248 3.42726 31.528C4.5981 32.9905 7.19161 32.912 10.5126 31.6012L11.2831 32.0715C12.3022 32.6935 13.5011 33.0981 14.8559 33.2918C8.55079 36.8722 3.12701 37.7794 0.958581 35.0696Z" fill="#628CF5"/>
<path d="M41.707 15.886H33.5595L35.913 11.9258H42.4129C43.6763 11.9258 44.7934 12.1658 45.7651 12.6468C46.7369 13.1268 47.4859 13.8058 48.0143 14.6829C48.5427 15.5599 48.8063 16.5737 48.8063 17.724C48.8063 19.5341 48.3156 21.0579 47.3352 22.2923C46.3549 23.5277 44.9591 24.3897 43.149 24.8804L47.5332 31.7258H42.2149L38.3677 25.3055H35.2286L34.0976 31.7258H29.4023L31.2017 21.4863H40.7729C41.7156 21.4863 42.5076 21.2032 43.149 20.6372C43.7904 20.0722 44.1488 19.3275 44.2241 18.4031C44.2618 17.6498 44.0584 17.0418 43.6161 16.579C43.1727 16.1174 42.5367 15.886 41.707 15.886Z" fill="white"/>
<path d="M28.9148 18.7656C31.5761 14.8 38.2127 5.10823 35.5417 1.77111C33.0256 -1.37339 23.9398 2.59866 15.1552 10.645H13.3516C23.2542 1.57202 33.8424 -2.48827 37.0978 1.57955C38.7637 3.66082 38.1858 7.47037 35.9151 11.9245L33.5516 15.889C33.053 16.2033 28.9148 18.7656 28.9148 18.7656Z" fill="#628CF5"/>
<path d="M20.9147 11.9258H17.0384L16.3594 15.7482L20.9147 11.9258Z" fill="white"/>
</svg>
