<svg width="25" height="24" viewBox="0 0 25 24" fill="none" xmlns="http://www.w3.org/2000/svg">
<circle cx="12.5" cy="12" r="3" stroke="#464A4E" stroke-width="2.5"/>
<path d="M14.7171 3.12338C14.6042 3.0432 14.4682 3 14.3285 3H14.3272H10.6702C10.5309 3.00055 10.3955 3.044 10.2832 3.12414C10.1708 3.20427 10.0874 3.31699 10.0448 3.44614L9.31921 5.64214C9.01445 5.78743 8.72157 5.95329 8.44188 6.13714L6.12654 5.64986C5.99009 5.62132 5.84787 5.63569 5.72033 5.69091C5.59279 5.74612 5.48651 5.83934 5.41677 5.95714L3.58824 9.04286C3.51842 9.16083 3.48884 9.29736 3.50378 9.43278C3.51872 9.56819 3.5774 9.69547 3.67136 9.79629L5.26109 11.5089C5.23806 11.8359 5.23806 12.1641 5.26109 12.4911L3.67136 14.2037C3.5774 14.3045 3.51872 14.4318 3.50378 14.5672C3.48884 14.7026 3.51842 14.8392 3.58824 14.9571L5.41677 18.0416C5.48632 18.1596 5.59252 18.2531 5.72007 18.3085C5.84763 18.364 5.98995 18.3786 6.12654 18.3501L8.44188 17.8629C8.72213 18.0476 9.01528 18.213 9.31921 18.3579L10.0435 20.5539C10.0862 20.6834 10.1701 20.7964 10.2829 20.8766C10.3958 20.9568 10.5318 21 10.6715 21H14.3285C14.4682 21 14.6042 20.9568 14.7171 20.8766C14.8299 20.7964 14.9138 20.6834 14.9565 20.5539L15.6834 18.3566C15.9869 18.2113 16.2797 18.0467 16.5568 17.8641L18.8735 18.3501C19.0099 18.3787 19.1521 18.3643 19.2797 18.3091C19.4072 18.2539 19.5135 18.1607 19.5832 18.0429L21.4118 14.9571C21.4816 14.8392 21.5112 14.7026 21.4962 14.5672C21.4813 14.4318 21.4226 14.3045 21.3286 14.2037L19.7389 12.4911C19.7621 12.1632 19.7621 11.8342 19.7389 11.5063L21.3286 9.79629C21.4226 9.69547 21.4813 9.56819 21.4962 9.43278C21.5112 9.29736 21.4816 9.16083 21.4118 9.04286L19.5832 5.95843C19.5137 5.84039 19.4075 5.74691 19.2799 5.69146C19.1524 5.636 19.0101 5.62144 18.8735 5.64986L16.5568 6.13586C16.2784 5.952 15.9869 5.78871 15.6821 5.64343L14.9565 3.44614C14.9138 3.31657 14.8299 3.20356 14.7171 3.12338Z" stroke="#464A4E" stroke-width="2.5"/>
</svg>
