<svg width="24" height="24" viewBox="0 0 24 24" fill="none" xmlns="http://www.w3.org/2000/svg">
<path d="M8.11932 13V4.5C8.11932 4.10218 8.27736 3.72064 8.55866 3.43934C8.83997 3.15804 9.2215 3 9.61932 3C10.0171 3 10.3987 3.15804 10.68 3.43934C10.9613 3.72064 11.1193 4.10218 11.1193 4.5V9.5C11.1193 9.10218 11.2774 8.72064 11.5587 8.43934C11.84 8.15804 12.2215 8 12.6193 8C13.0171 8 13.3987 8.15804 13.68 8.43934C13.9613 8.72064 14.1193 9.10218 14.1193 9.5V10.4922C14.1194 10.475 14.1198 10.4579 14.1205 10.4408C14.1353 10.0645 14.2913 9.70667 14.5587 9.43934C14.84 9.15804 15.2215 9 15.6193 9C16.0171 9 16.3987 9.15804 16.68 9.43934C16.9613 9.72064 17.1193 10.1022 17.1193 10.5V11.4648C17.1283 11.0798 17.2857 10.7123 17.5587 10.4393C17.84 10.158 18.2215 10 18.6193 10C19.0171 10 19.3987 10.158 19.68 10.4393C19.9613 10.7206 20.1193 11.1022 20.1193 11.5V16C20.1193 17.5913 19.4872 19.1174 18.362 20.2426C17.2367 21.3679 15.7106 22 14.1193 22H12.3253C11.3323 21.9998 10.3549 21.7532 9.48071 21.2823C8.6059 20.811 7.86184 20.1299 7.31532 19.3L7.11932 19C6.80732 18.5213 5.71199 16.612 3.83332 13.272C3.64177 12.9315 3.59061 12.5298 3.69071 12.1522C3.79081 11.7745 4.03427 11.4509 4.36932 11.25C4.72636 11.0364 5.14443 10.9479 5.55739 10.9986C5.97034 11.0494 6.35459 11.2363 6.64932 11.53L8.11932 13Z" fill="white"/>
<path d="M8.24121 13V4.5C8.24121 4.10218 8.39925 3.72064 8.68055 3.43934C8.96186 3.15804 9.34339 3 9.74121 3C10.139 3 10.5206 3.15804 10.8019 3.43934C11.0832 3.72064 11.2412 4.10218 11.2412 4.5V12M11.2412 11.5V9.5C11.2412 9.10218 11.3992 8.72064 11.6806 8.43934C11.9619 8.15804 12.3434 8 12.7412 8C13.139 8 13.5206 8.15804 13.8019 8.43934C14.0832 8.72064 14.2412 9.10218 14.2412 9.5V12M14.2412 10.5C14.2412 10.1022 14.3992 9.72064 14.6806 9.43934C14.9619 9.15804 15.3434 9 15.7412 9C16.139 9 16.5206 9.15804 16.8019 9.43934C17.0832 9.72064 17.2412 10.1022 17.2412 10.5V12" stroke="#464A4E" stroke-width="2" stroke-linecap="round" stroke-linejoin="round"/>
<path d="M17.1183 11.5C17.1183 11.1022 17.2764 10.7206 17.5577 10.4393C17.839 10.158 18.2205 10 18.6183 10C19.0162 10 19.3977 10.158 19.679 10.4393C19.9603 10.7206 20.1183 11.1022 20.1183 11.5V16C20.1183 17.5913 19.4862 19.1174 18.361 20.2426C17.2358 21.3679 15.7096 22 14.1183 22H12.1183H12.3263C11.3327 22.0002 10.3545 21.7535 9.47973 21.2823C8.60493 20.811 7.86086 20.1299 7.31435 19.3L7.11835 19C6.80635 18.5213 5.71101 16.612 3.83235 13.272C3.6408 12.9315 3.58963 12.5298 3.68973 12.1522C3.78983 11.7745 4.0333 11.4509 4.36835 11.25C4.72538 11.0364 5.14345 10.9479 5.55641 10.9986C5.96936 11.0494 6.35361 11.2363 6.64835 11.53L8.11835 13" stroke="#464A4E" stroke-width="2" stroke-linecap="round" stroke-linejoin="round"/>
</svg>
