<svg width="24" height="24" viewBox="0 0 24 24" fill="none" xmlns="http://www.w3.org/2000/svg">
<g clip-path="url(#clip0_1013_1229)">
<path d="M2.52539 11.0693C2.85951 10.4488 3.36517 9.87402 4.01079 9.36283C4.81266 8.72728 5.8299 8.19083 6.99921 7.79055C8.46709 7.28807 10.1746 7.00016 11.9966 7.00016C13.2294 7.00016 14.4098 7.13198 15.499 7.37291C16.0195 7.48804 16.5191 7.62808 16.9937 7.79055C18.163 8.19083 19.1803 8.72728 19.9824 9.36283C20.628 9.87402 21.1337 10.4488 21.4678 11.0693" stroke="#464A4E" stroke-width="2" stroke-linecap="round" stroke-linejoin="round"/>
<path d="M12 16C14.2091 16 16 14.2091 16 12C16 9.79086 14.2091 8 12 8C9.79086 8 8 9.79086 8 12C8 14.2091 9.79086 16 12 16Z" fill="#464A4E"/>
</g>
<defs>
<clipPath id="clip0_1013_1229">
<rect width="24" height="24" fill="white"/>
</clipPath>
</defs>
</svg>
