<svg width="25" height="24" viewBox="0 0 25 24" fill="none" xmlns="http://www.w3.org/2000/svg">
<path d="M4.1001 12C4.1001 11.0059 4.90599 10.2 5.9001 10.2C6.89421 10.2 7.7001 11.0059 7.7001 12C7.7001 12.9941 6.89421 13.8 5.9001 13.8C4.90599 13.8 4.1001 12.9941 4.1001 12Z" fill="#464A4E"/>
<path d="M10.7001 12C10.7001 11.0059 11.506 10.2 12.5001 10.2C13.4942 10.2 14.3001 11.0059 14.3001 12C14.3001 12.9941 13.4942 13.8 12.5001 13.8C11.506 13.8 10.7001 12.9941 10.7001 12Z" fill="#464A4E"/>
<path d="M19.1001 10.2C18.106 10.2 17.3001 11.0059 17.3001 12C17.3001 12.9941 18.106 13.8 19.1001 13.8C20.0942 13.8 20.9001 12.9941 20.9001 12C20.9001 11.0059 20.0942 10.2 19.1001 10.2Z" fill="#464A4E"/>
</svg>
