<svg width="24" height="24" viewBox="0 0 24 24" fill="none" xmlns="http://www.w3.org/2000/svg">
<path d="M4 16C5.55158 18.989 8.45159 21 11.7731 21C15.4528 21 18.6153 18.5318 20 15" stroke="#464A4E" stroke-width="2.5" stroke-linecap="round"/>
<path d="M18.6968 12.0817C19.0966 11.5431 19.9029 11.5431 20.3027 12.0817L22.2121 14.654C22.7019 15.3138 22.2309 16.25 21.4092 16.25H17.5903C16.7686 16.25 16.2976 15.3138 16.7874 14.654L18.6968 12.0817Z" fill="#464A4E"/>
<path d="M20 8C18.4484 5.01099 15.5484 3 12.2269 3C8.54717 3 5.38473 5.46819 4 9" stroke="#464A4E" stroke-width="2.5" stroke-linecap="round"/>
<path d="M5.3032 11.9183C4.90338 12.4569 4.09711 12.4569 3.69729 11.9183L1.78788 9.34604C1.29807 8.6862 1.76907 7.75 2.59084 7.75H6.40965C7.23142 7.75 7.70241 8.68619 7.21261 9.34604L5.3032 11.9183Z" fill="#464A4E"/>
</svg>
