<svg width="24" height="24" viewBox="0 0 24 24" fill="none" xmlns="http://www.w3.org/2000/svg">
<path d="M5 8L6.72063 19.3439C6.86508 20.2962 7.68371 21 8.64689 21H15.3531C16.3163 21 17.1349 20.2962 17.2794 19.3439L19 8" stroke="#464A4E" stroke-width="2.5"/>
<path d="M17.6012 20.41L18 20H6L6.39725 20.409C6.76413 20.7868 7.26831 21 7.79491 21H16.2045C16.7307 21 17.2344 20.7872 17.6012 20.41Z" fill="#464A4E"/>
<path d="M16 7V4.10944C16 3.49671 15.5033 3 14.8906 3H9.10944C8.49671 3 8 3.49671 8 4.10944V7" stroke="#464A4E" stroke-width="2.5"/>
<path d="M3 7.36072H21" stroke="#464A4E" stroke-width="2.5" stroke-linecap="round"/>
</svg>
