<svg width="24" height="24" viewBox="0 0 24 24" fill="none" xmlns="http://www.w3.org/2000/svg">
<circle cx="12" cy="12" r="6" fill="#E6EDFF"/>
<mask id="path-2-inside-1_1013_756" fill="white">
<path fill-rule="evenodd" clip-rule="evenodd" d="M12.0007 1.33362C12.2835 1.33362 12.5549 1.446 12.7549 1.64604C12.9549 1.84608 13.0673 2.11739 13.0673 2.40028V3.53308C13.8392 3.62967 14.5943 3.83137 15.3116 4.13255L15.8769 3.15335C15.9464 3.03106 16.0395 2.92374 16.1507 2.83755C16.2618 2.75136 16.389 2.68801 16.5247 2.65115C16.6605 2.6143 16.8022 2.60466 16.9417 2.62279C17.0812 2.64092 17.2157 2.68647 17.3375 2.7568C17.4594 2.82714 17.5661 2.92088 17.6515 3.03263C17.737 3.14437 17.7995 3.27192 17.8354 3.40792C17.8714 3.54391 17.8801 3.68568 17.861 3.82506C17.842 3.96443 17.7955 4.09866 17.7244 4.22002L17.158 5.20135C17.7767 5.67068 18.3292 6.22428 18.8007 6.84402L19.782 6.27655C19.9033 6.20541 20.0376 6.15897 20.1769 6.13991C20.3163 6.12086 20.4581 6.12956 20.5941 6.16551C20.7301 6.20147 20.8576 6.26397 20.9694 6.34942C21.0811 6.43487 21.1749 6.54158 21.2452 6.6634C21.3155 6.78523 21.3611 6.91976 21.3792 7.05926C21.3973 7.19876 21.3877 7.34047 21.3508 7.47622C21.314 7.61198 21.2506 7.73911 21.1645 7.85028C21.0783 7.96146 20.9709 8.05449 20.8487 8.12402L19.8673 8.68935C20.1649 9.39442 20.3697 10.1475 20.4679 10.9336H21.6007C21.8835 10.9336 22.1549 11.046 22.3549 11.246C22.5549 11.4461 22.6673 11.7174 22.6673 12.0003C22.6673 12.2832 22.5549 12.5545 22.3549 12.7545C22.1549 12.9546 21.8835 13.067 21.6007 13.067H20.4679C20.3713 13.8389 20.1696 14.594 19.8684 15.3112L20.8476 15.8766C20.9699 15.9461 21.0772 16.0391 21.1634 16.1503C21.2496 16.2615 21.3129 16.3886 21.3498 16.5243C21.3866 16.6601 21.3963 16.8018 21.3781 16.9413C21.36 17.0808 21.3145 17.2153 21.2441 17.3372C21.1738 17.459 21.0801 17.5657 20.9683 17.6512C20.8566 17.7366 20.729 17.7991 20.593 17.8351C20.457 17.871 20.3153 17.8797 20.1759 17.8607C20.0365 17.8416 19.9023 17.7952 19.7809 17.724L18.7996 17.1576C18.3295 17.7775 17.7768 18.3302 17.1569 18.8003L17.7244 19.7816C17.7955 19.903 17.842 20.0372 17.861 20.1766C17.8801 20.316 17.8714 20.4577 17.8354 20.5937C17.7995 20.7297 17.737 20.8573 17.6515 20.969C17.5661 21.0808 17.4594 21.1745 17.3375 21.2448C17.2157 21.3152 17.0812 21.3607 16.9417 21.3788C16.8022 21.397 16.6605 21.3873 16.5247 21.3505C16.389 21.3136 16.2618 21.2503 16.1507 21.1641C16.0395 21.0779 15.9464 20.9706 15.8769 20.8483L15.3116 19.867C14.5944 20.1685 13.8393 20.3706 13.0673 20.4675V21.6003C13.0673 21.8832 12.9549 22.1545 12.7549 22.3545C12.5549 22.5546 12.2835 22.667 12.0007 22.667C11.7178 22.667 11.4464 22.5546 11.2464 22.3545C11.0464 22.1545 10.934 21.8832 10.934 21.6003V20.4675C10.1621 20.3709 9.40698 20.1692 8.68972 19.868L8.12438 20.8472C8.05486 20.9695 7.96183 21.0768 7.85065 21.163C7.73947 21.2492 7.61235 21.3126 7.47659 21.3494C7.34083 21.3863 7.19913 21.3959 7.05963 21.3778C6.92013 21.3597 6.78559 21.3141 6.66377 21.2438C6.54194 21.1734 6.43524 21.0797 6.34979 20.9679C6.26434 20.8562 6.20184 20.7287 6.16588 20.5927C6.12992 20.4567 6.12122 20.3149 6.14028 20.1755C6.15934 20.0361 6.20577 19.9019 6.27692 19.7806L6.84332 18.7992C6.22344 18.3291 5.67077 17.7764 5.20065 17.1566L4.21932 17.724C4.09796 17.7952 3.96373 17.8416 3.82436 17.8607C3.68498 17.8797 3.54321 17.871 3.40722 17.8351C3.27122 17.7991 3.14367 17.7366 3.03193 17.6512C2.92018 17.5657 2.82644 17.459 2.7561 17.3372C2.68577 17.2153 2.64022 17.0808 2.62209 16.9413C2.60396 16.8018 2.6136 16.6601 2.65045 16.5243C2.68731 16.3886 2.75066 16.2615 2.83685 16.1503C2.92303 16.0391 3.03036 15.9461 3.15265 15.8766L4.13398 15.3112C3.83207 14.5941 3.62966 13.839 3.53238 13.067H2.40065C2.11775 13.067 1.84644 12.9546 1.6464 12.7545C1.44637 12.5545 1.33398 12.2832 1.33398 12.0003C1.33398 11.7174 1.44637 11.4461 1.6464 11.246C1.84644 11.046 2.11775 10.9336 2.40065 10.9336H3.53345C3.63004 10.1617 3.83173 9.40662 4.13292 8.68935L3.15372 8.12402C2.91072 7.98156 2.73394 7.74878 2.66194 7.47646C2.58995 7.20415 2.62859 6.91441 2.76943 6.67048C2.91026 6.42654 3.14187 6.24822 3.4137 6.17442C3.68553 6.10062 3.97552 6.13733 4.22038 6.27655L5.20172 6.84295C5.67105 6.22429 6.22465 5.67175 6.84439 5.20029L6.27692 4.21895C6.1377 3.97409 6.10099 3.6841 6.17479 3.41227C6.24859 3.14044 6.42691 2.90883 6.67084 2.76799C6.91478 2.62715 7.20452 2.58852 7.47683 2.66051C7.74915 2.73251 7.98193 2.90929 8.12438 3.15228L8.68972 4.13362C9.40688 3.8317 10.162 3.62929 10.934 3.53202V2.40028C10.934 2.11739 11.0464 1.84608 11.2464 1.64604C11.4464 1.446 11.7178 1.33362 12.0007 1.33362Z"/>
</mask>
<path fill-rule="evenodd" clip-rule="evenodd" d="M12.0007 1.33362C12.2835 1.33362 12.5549 1.446 12.7549 1.64604C12.9549 1.84608 13.0673 2.11739 13.0673 2.40028V3.53308C13.8392 3.62967 14.5943 3.83137 15.3116 4.13255L15.8769 3.15335C15.9464 3.03106 16.0395 2.92374 16.1507 2.83755C16.2618 2.75136 16.389 2.68801 16.5247 2.65115C16.6605 2.6143 16.8022 2.60466 16.9417 2.62279C17.0812 2.64092 17.2157 2.68647 17.3375 2.7568C17.4594 2.82714 17.5661 2.92088 17.6515 3.03263C17.737 3.14437 17.7995 3.27192 17.8354 3.40792C17.8714 3.54391 17.8801 3.68568 17.861 3.82506C17.842 3.96443 17.7955 4.09866 17.7244 4.22002L17.158 5.20135C17.7767 5.67068 18.3292 6.22428 18.8007 6.84402L19.782 6.27655C19.9033 6.20541 20.0376 6.15897 20.1769 6.13991C20.3163 6.12086 20.4581 6.12956 20.5941 6.16551C20.7301 6.20147 20.8576 6.26397 20.9694 6.34942C21.0811 6.43487 21.1749 6.54158 21.2452 6.6634C21.3155 6.78523 21.3611 6.91976 21.3792 7.05926C21.3973 7.19876 21.3877 7.34047 21.3508 7.47622C21.314 7.61198 21.2506 7.73911 21.1645 7.85028C21.0783 7.96146 20.9709 8.05449 20.8487 8.12402L19.8673 8.68935C20.1649 9.39442 20.3697 10.1475 20.4679 10.9336H21.6007C21.8835 10.9336 22.1549 11.046 22.3549 11.246C22.5549 11.4461 22.6673 11.7174 22.6673 12.0003C22.6673 12.2832 22.5549 12.5545 22.3549 12.7545C22.1549 12.9546 21.8835 13.067 21.6007 13.067H20.4679C20.3713 13.8389 20.1696 14.594 19.8684 15.3112L20.8476 15.8766C20.9699 15.9461 21.0772 16.0391 21.1634 16.1503C21.2496 16.2615 21.3129 16.3886 21.3498 16.5243C21.3866 16.6601 21.3963 16.8018 21.3781 16.9413C21.36 17.0808 21.3145 17.2153 21.2441 17.3372C21.1738 17.459 21.0801 17.5657 20.9683 17.6512C20.8566 17.7366 20.729 17.7991 20.593 17.8351C20.457 17.871 20.3153 17.8797 20.1759 17.8607C20.0365 17.8416 19.9023 17.7952 19.7809 17.724L18.7996 17.1576C18.3295 17.7775 17.7768 18.3302 17.1569 18.8003L17.7244 19.7816C17.7955 19.903 17.842 20.0372 17.861 20.1766C17.8801 20.316 17.8714 20.4577 17.8354 20.5937C17.7995 20.7297 17.737 20.8573 17.6515 20.969C17.5661 21.0808 17.4594 21.1745 17.3375 21.2448C17.2157 21.3152 17.0812 21.3607 16.9417 21.3788C16.8022 21.397 16.6605 21.3873 16.5247 21.3505C16.389 21.3136 16.2618 21.2503 16.1507 21.1641C16.0395 21.0779 15.9464 20.9706 15.8769 20.8483L15.3116 19.867C14.5944 20.1685 13.8393 20.3706 13.0673 20.4675V21.6003C13.0673 21.8832 12.9549 22.1545 12.7549 22.3545C12.5549 22.5546 12.2835 22.667 12.0007 22.667C11.7178 22.667 11.4464 22.5546 11.2464 22.3545C11.0464 22.1545 10.934 21.8832 10.934 21.6003V20.4675C10.1621 20.3709 9.40698 20.1692 8.68972 19.868L8.12438 20.8472C8.05486 20.9695 7.96183 21.0768 7.85065 21.163C7.73947 21.2492 7.61235 21.3126 7.47659 21.3494C7.34083 21.3863 7.19913 21.3959 7.05963 21.3778C6.92013 21.3597 6.78559 21.3141 6.66377 21.2438C6.54194 21.1734 6.43524 21.0797 6.34979 20.9679C6.26434 20.8562 6.20184 20.7287 6.16588 20.5927C6.12992 20.4567 6.12122 20.3149 6.14028 20.1755C6.15934 20.0361 6.20577 19.9019 6.27692 19.7806L6.84332 18.7992C6.22344 18.3291 5.67077 17.7764 5.20065 17.1566L4.21932 17.724C4.09796 17.7952 3.96373 17.8416 3.82436 17.8607C3.68498 17.8797 3.54321 17.871 3.40722 17.8351C3.27122 17.7991 3.14367 17.7366 3.03193 17.6512C2.92018 17.5657 2.82644 17.459 2.7561 17.3372C2.68577 17.2153 2.64022 17.0808 2.62209 16.9413C2.60396 16.8018 2.6136 16.6601 2.65045 16.5243C2.68731 16.3886 2.75066 16.2615 2.83685 16.1503C2.92303 16.0391 3.03036 15.9461 3.15265 15.8766L4.13398 15.3112C3.83207 14.5941 3.62966 13.839 3.53238 13.067H2.40065C2.11775 13.067 1.84644 12.9546 1.6464 12.7545C1.44637 12.5545 1.33398 12.2832 1.33398 12.0003C1.33398 11.7174 1.44637 11.4461 1.6464 11.246C1.84644 11.046 2.11775 10.9336 2.40065 10.9336H3.53345C3.63004 10.1617 3.83173 9.40662 4.13292 8.68935L3.15372 8.12402C2.91072 7.98156 2.73394 7.74878 2.66194 7.47646C2.58995 7.20415 2.62859 6.91441 2.76943 6.67048C2.91026 6.42654 3.14187 6.24822 3.4137 6.17442C3.68553 6.10062 3.97552 6.13733 4.22038 6.27655L5.20172 6.84295C5.67105 6.22429 6.22465 5.67175 6.84439 5.20029L6.27692 4.21895C6.1377 3.97409 6.10099 3.6841 6.17479 3.41227C6.24859 3.14044 6.42691 2.90883 6.67084 2.76799C6.91478 2.62715 7.20452 2.58852 7.47683 2.66051C7.74915 2.73251 7.98193 2.90929 8.12438 3.15228L8.68972 4.13362C9.40688 3.8317 10.162 3.62929 10.934 3.53202V2.40028C10.934 2.11739 11.0464 1.84608 11.2464 1.64604C11.4464 1.446 11.7178 1.33362 12.0007 1.33362Z" stroke="#050506" stroke-width="2.128" mask="url(#path-2-inside-1_1013_756)"/>
<path d="M12 3.19995L12 12" stroke="#050506" stroke-width="1.064" stroke-linecap="round"/>
<path d="M19.1992 16L11.9992 12" stroke="#050506" stroke-width="1.064" stroke-linecap="round"/>
<path d="M4.80078 16L12.0008 12" stroke="#050506" stroke-width="1.064" stroke-linecap="round"/>
</svg>
