<svg width="25" height="24" viewBox="0 0 25 24" fill="none" xmlns="http://www.w3.org/2000/svg">
<path fill-rule="evenodd" clip-rule="evenodd" d="M15.5402 4.05132C16.5502 4.45332 16.8592 5.85332 17.2722 6.30332C17.6852 6.75332 18.2762 6.90632 18.6032 6.90632C20.3412 6.90632 21.7502 8.31532 21.7502 10.0523V15.8473C21.7502 18.1773 19.8602 20.0673 17.5302 20.0673H7.47024C5.13924 20.0673 3.25024 18.1773 3.25024 15.8473V10.0523C3.25024 8.31532 4.65924 6.90632 6.39724 6.90632C6.72324 6.90632 7.31424 6.75332 7.72824 6.30332C8.14124 5.85332 8.44924 4.45332 9.45924 4.05132C10.4702 3.64932 14.5302 3.64932 15.5402 4.05132Z" stroke="#464A4E" stroke-width="2.5" stroke-linecap="round" stroke-linejoin="round"/>
<path fill-rule="evenodd" clip-rule="evenodd" d="M15.6786 13.128C15.6786 11.372 14.2556 9.94904 12.4996 9.94904C10.7436 9.94904 9.32056 11.372 9.32056 13.128C9.32056 14.884 10.7436 16.307 12.4996 16.307C14.2556 16.307 15.6786 14.884 15.6786 13.128Z" stroke="#464A4E" stroke-width="2.5" stroke-linecap="round" stroke-linejoin="round"/>
</svg>
