<svg xmlns="http://www.w3.org/2000/svg" width="18" height="18" viewBox="0 0 18 18" fill="none">
  <path fill-rule="evenodd" clip-rule="evenodd" d="M5 6.94469L9 3.83358L13 6.94469V14.25C13 14.388 12.888 14.5 12.75 14.5H5.25C5.11194 14.5 5 14.3881 5 14.25V6.94469ZM2.5 8.72503C2.04929 8.81665 1.56482 8.65509 1.26331 8.26743C0.839472 7.7225 0.93764 6.93715 1.48257 6.51331L8.09443 1.37075L8.09447 1.37073C8.62709 0.956492 9.37291 0.956492 9.90553 1.37073L9.90557 1.37075L16.5174 6.51331C17.0624 6.93715 17.1605 7.7225 16.7367 8.26743C16.4352 8.65509 15.9507 8.81665 15.5 8.72503V14.25C15.5 15.7688 14.2688 17 12.75 17H5.25C3.7312 17 2.5 15.7687 2.5 14.25V8.72503Z" fill="white" fill-opacity="0.8"/>
</svg>